<?xml version="1.0" encoding="utf-8"?>
<!-- Generator: Adobe Illustrator 18.1.0, SVG Export Plug-In . SVG Version: 6.00 Build 0)  -->
<!DOCTYPE svg PUBLIC "-//W3C//DTD SVG 1.1//EN" "http://www.w3.org/Graphics/SVG/1.1/DTD/svg11.dtd">
<svg version="1.1" xmlns="http://www.w3.org/2000/svg" xmlns:xlink="http://www.w3.org/1999/xlink" x="0px" y="0px"
	 viewBox="0 0 151.7 61.3" enable-background="new 0 0 151.7 61.3" xml:space="preserve">
<g id="MeReFoundtn_PMS_Warm_Gray_10" display="none">
	<g display="inline">
		<path fill="#8A7967" d="M151.7,53.7c0,3.5-2.8,6.4-6.2,6.4H8.9c-3.4,0-6.2-2.9-6.2-6.4V6.4C2.7,2.9,5.4,0,8.9,0h136.6
			c3.4,0,6.2,2.9,6.2,6.4V53.7z"/>
		<path fill="#FFFFFF" d="M50.6,41.5c0,3.5,2.3,6.3,5.5,6.9c0.6,0.1,1.3,0.2,2,0.1c1.8-0.1,3.4-0.8,4.4-1.5l0,2.4
			c-1.1,0.6-2.7,1.3-5.2,1.3l0,0c-5.2,0-9.1-4-9.1-9.2c0-5.3,3.9-9.2,9.1-9.2l0,0c2.5,0,4.1,0.7,5.2,1.3l0,2.4
			c-1-0.7-2.6-1.4-4.4-1.6c-0.7,0-1.3,0-2,0.1C52.9,35.2,50.6,38.1,50.6,41.5z"/>
		<path fill="#FFFFFF" d="M48.2,50.6h-3.2l-5.7-7h-3.8v7h-2.3V32.6h5.2c1.1,0,2,0,2.7,0.2c0.9,0.2,1.5,0.4,2.1,0.8
			c0.6,0.4,1,0.8,1.4,1.5c0.4,0.6,0.6,1.7,0.6,2.6c0,1.2-0.3,2.2-0.9,3.1c-0.6,0.9-1.5,1.7-2.6,2L48.2,50.6L48.2,50.6 M42.9,37.8
			c0-0.5-0.1-1.1-0.3-1.5c-0.2-0.4-0.5-0.7-0.9-1c-0.4-0.2-0.8-0.4-1.3-0.4c-0.5-0.1-1.1-0.1-1.7-0.1h-3.1v6.5h2.8
			c0.8,0,1.5,0,2-0.2c0.5-0.1,1.1-0.4,1.5-0.7c0.4-0.3,0.6-0.7,0.8-1.1C42.8,38.9,42.9,38.4,42.9,37.8L42.9,37.8z"/>
		<path fill="#FFFFFF" d="M28.6,32.6h-3.3l-3.1,8.7c-0.7,2-1.2,3.9-1.7,5.6h-0.1c-0.5-1.7-1-3.6-1.7-5.6l-3.1-8.7h-3.3l-1.3,17.9
			h2.4l0.5-7.7c0.2-2.7,0.3-5.7,0.3-7.9h0.1c0.5,2.1,1.2,4.4,2.1,7l2.9,8.5h2l2.9-8.5c0.9-2.6,1.5-4.8,2.1-7h0.1
			c0.1,2.2,0.2,5.2,0.3,7.9l0.5,7.7h2.4L28.6,32.6z"/>
		<polygon fill="#FFFFFF" points="72,54.6 70.6,54.6 70.6,5.6 72,5.6 72,54.6 		"/>
		<g>
			<path fill="#FFFFFF" d="M85.7,14.7c-0.1-1.1-0.1-2.5-0.1-3.5h0c-0.3,0.9-0.6,2-1,3.1l-1.4,3.9h-0.8L81,14.3
				c-0.4-1.1-0.7-2.2-0.9-3.1h0c0,1-0.1,2.4-0.2,3.6l-0.2,3.5h-1l0.6-8.1h1.3l1.4,3.9c0.3,1,0.6,1.9,0.8,2.7h0
				c0.2-0.8,0.5-1.7,0.9-2.7l1.4-3.9h1.3l0.5,8.1h-1L85.7,14.7z"/>
			<path fill="#FFFFFF" d="M94.1,15.3h-4.4c0,0.4,0.1,0.7,0.2,1c0.1,0.3,0.3,0.5,0.5,0.7c0.2,0.2,0.4,0.3,0.7,0.4
				c0.3,0.1,0.5,0.1,0.8,0.1c0.4,0,0.8-0.1,1.2-0.2c0.4-0.2,0.7-0.3,0.9-0.5H94v1.1c-0.3,0.1-0.7,0.3-1,0.4
				c-0.4,0.1-0.7,0.1-1.1,0.1c-1,0-1.8-0.3-2.3-0.8c-0.6-0.5-0.8-1.3-0.8-2.3c0-1,0.3-1.8,0.8-2.3c0.5-0.6,1.2-0.9,2.1-0.9
				c0.8,0,1.4,0.2,1.9,0.7c0.4,0.5,0.7,1.1,0.7,2V15.3z M93.1,14.6c0-0.5-0.1-0.9-0.4-1.2c-0.3-0.3-0.7-0.4-1.2-0.4
				c-0.5,0-1,0.2-1.3,0.5c-0.3,0.3-0.5,0.7-0.5,1.2H93.1z"/>
			<path fill="#FFFFFF" d="M101.2,18.2h-1v-0.6c-0.3,0.3-0.6,0.4-0.9,0.6c-0.3,0.1-0.7,0.2-1,0.2c-0.7,0-1.3-0.3-1.7-0.8
				c-0.4-0.6-0.6-1.3-0.6-2.3c0-0.5,0.1-1,0.2-1.4c0.1-0.4,0.3-0.7,0.6-1c0.2-0.3,0.5-0.5,0.9-0.6c0.3-0.1,0.7-0.2,1-0.2
				c0.3,0,0.6,0,0.8,0.1c0.2,0.1,0.5,0.2,0.8,0.3V9.9h1V18.2z M100.1,16.8v-3.4c-0.3-0.1-0.5-0.2-0.7-0.3C99.2,13,99,13,98.7,13
				c-0.6,0-1,0.2-1.3,0.6c-0.3,0.4-0.5,1-0.5,1.7c0,0.7,0.1,1.3,0.4,1.6c0.2,0.4,0.6,0.6,1.2,0.6c0.3,0,0.6-0.1,0.9-0.2
				C99.6,17.1,99.9,17,100.1,16.8z"/>
			<path fill="#FFFFFF" d="M104.9,11.2h-1.1v-1h1.1V11.2z M104.8,18.2h-1v-6h1V18.2z"/>
			<path fill="#FFFFFF" d="M111.9,17.9c-0.3,0.2-0.7,0.3-1,0.4c-0.3,0.1-0.6,0.1-1,0.1c-0.4,0-0.8-0.1-1.2-0.2
				c-0.4-0.1-0.7-0.3-0.9-0.6c-0.3-0.3-0.5-0.6-0.6-1c-0.1-0.4-0.2-0.9-0.2-1.4c0-1,0.3-1.8,0.8-2.3c0.5-0.6,1.2-0.8,2.1-0.8
				c0.3,0,0.7,0,1,0.1c0.3,0.1,0.6,0.2,0.9,0.4v1.1h-0.1c-0.3-0.2-0.6-0.4-1-0.5c-0.3-0.1-0.6-0.2-1-0.2c-0.6,0-1,0.2-1.4,0.6
				c-0.3,0.4-0.5,0.9-0.5,1.7c0,0.7,0.2,1.3,0.5,1.7c0.3,0.4,0.8,0.6,1.4,0.6c0.2,0,0.4,0,0.6-0.1c0.2-0.1,0.4-0.1,0.6-0.2
				c0.1-0.1,0.3-0.2,0.4-0.2c0.1-0.1,0.2-0.2,0.3-0.2h0.1V17.9z"/>
			<path fill="#FFFFFF" d="M118.5,18.2h-1v-0.6c-0.1,0.1-0.2,0.1-0.4,0.3c-0.2,0.1-0.3,0.2-0.4,0.3c-0.2,0.1-0.4,0.2-0.6,0.2
				c-0.2,0.1-0.5,0.1-0.8,0.1c-0.5,0-1-0.2-1.4-0.5c-0.4-0.4-0.6-0.8-0.6-1.4c0-0.5,0.1-0.8,0.3-1.1c0.2-0.3,0.5-0.5,0.8-0.7
				c0.4-0.2,0.8-0.3,1.3-0.3c0.5-0.1,1.1-0.1,1.6-0.1v-0.2c0-0.2,0-0.4-0.1-0.6c-0.1-0.2-0.2-0.3-0.3-0.4c-0.1-0.1-0.3-0.1-0.5-0.2
				c-0.2,0-0.4,0-0.6,0c-0.3,0-0.6,0-0.9,0.1c-0.3,0.1-0.7,0.2-1,0.3H114v-1c0.2-0.1,0.5-0.1,0.9-0.2c0.4-0.1,0.7-0.1,1.1-0.1
				c0.4,0,0.8,0,1.1,0.1c0.3,0.1,0.6,0.2,0.8,0.4c0.2,0.2,0.4,0.4,0.5,0.6c0.1,0.3,0.2,0.6,0.2,1V18.2z M117.5,16.8v-1.7
				c-0.3,0-0.7,0-1.1,0.1c-0.4,0-0.7,0.1-1,0.2c-0.3,0.1-0.5,0.2-0.7,0.4c-0.2,0.2-0.3,0.4-0.3,0.7c0,0.3,0.1,0.6,0.3,0.8
				c0.2,0.2,0.5,0.3,1,0.3c0.4,0,0.7-0.1,1-0.2C117,17.1,117.3,17,117.5,16.8z"/>
			<path fill="#FFFFFF" d="M122.2,18.2h-1V9.9h1V18.2z"/>
			<path fill="#FFFFFF" d="M85.7,34.2h-1.4l-2.7-3.2h-1.5v3.2H79v-8h2.2c0.5,0,0.9,0,1.2,0.1c0.3,0.1,0.6,0.2,0.9,0.3
				c0.3,0.2,0.5,0.4,0.7,0.7c0.2,0.3,0.2,0.6,0.2,1.1c0,0.6-0.1,1.1-0.4,1.4c-0.3,0.4-0.7,0.7-1.2,0.9L85.7,34.2z M83.2,28.5
				c0-0.2,0-0.4-0.1-0.6c-0.1-0.2-0.2-0.3-0.4-0.4c-0.2-0.1-0.3-0.2-0.5-0.2c-0.2,0-0.5-0.1-0.7-0.1h-1.3v3h1.1c0.3,0,0.6,0,0.9-0.1
				c0.3-0.1,0.5-0.2,0.6-0.3c0.2-0.2,0.3-0.3,0.4-0.5C83.1,29,83.2,28.8,83.2,28.5z"/>
			<path fill="#FFFFFF" d="M92,31.3h-4.4c0,0.4,0.1,0.7,0.2,1c0.1,0.3,0.3,0.5,0.5,0.7c0.2,0.2,0.4,0.3,0.7,0.4
				c0.3,0.1,0.5,0.1,0.8,0.1c0.4,0,0.8-0.1,1.2-0.2c0.4-0.2,0.7-0.3,0.9-0.5h0.1v1.1c-0.3,0.1-0.7,0.3-1,0.4
				c-0.4,0.1-0.7,0.1-1.1,0.1c-1,0-1.8-0.3-2.3-0.8c-0.6-0.5-0.8-1.3-0.8-2.3c0-1,0.3-1.8,0.8-2.3c0.5-0.6,1.2-0.9,2.1-0.9
				c0.8,0,1.4,0.2,1.9,0.7c0.4,0.5,0.7,1.1,0.7,2V31.3z M91,30.6c0-0.5-0.1-0.9-0.4-1.2c-0.3-0.3-0.7-0.4-1.2-0.4
				c-0.5,0-1,0.2-1.3,0.5c-0.3,0.3-0.5,0.7-0.5,1.2H91z"/>
			<path fill="#FFFFFF" d="M98.5,32.5c0,0.5-0.2,1-0.7,1.4c-0.5,0.4-1.1,0.5-1.9,0.5c-0.4,0-0.9-0.1-1.2-0.2
				c-0.4-0.1-0.7-0.2-0.9-0.3v-1.1h0.1c0.3,0.2,0.7,0.4,1.1,0.6c0.4,0.1,0.8,0.2,1.1,0.2c0.4,0,0.8-0.1,1-0.2
				c0.2-0.1,0.4-0.4,0.4-0.7c0-0.2-0.1-0.4-0.2-0.5c-0.1-0.1-0.4-0.2-0.8-0.3c-0.1,0-0.3-0.1-0.6-0.1c-0.2,0-0.4-0.1-0.6-0.1
				c-0.5-0.1-0.9-0.3-1.1-0.6c-0.2-0.3-0.3-0.6-0.3-1c0-0.2,0.1-0.5,0.2-0.7c0.1-0.2,0.3-0.4,0.5-0.6c0.2-0.2,0.5-0.3,0.8-0.4
				c0.3-0.1,0.7-0.1,1-0.1c0.4,0,0.7,0,1.1,0.1c0.4,0.1,0.7,0.2,0.9,0.3v1.1h-0.1c-0.3-0.2-0.6-0.4-0.9-0.5
				c-0.4-0.1-0.7-0.2-1.1-0.2c-0.4,0-0.7,0.1-0.9,0.2c-0.3,0.1-0.4,0.4-0.4,0.6c0,0.2,0.1,0.4,0.2,0.6c0.2,0.1,0.4,0.2,0.7,0.3
				c0.2,0,0.4,0.1,0.6,0.1c0.2,0,0.4,0.1,0.6,0.1c0.5,0.1,0.8,0.3,1.1,0.6C98.4,31.7,98.5,32.1,98.5,32.5z"/>
			<path fill="#FFFFFF" d="M105.6,31.3h-4.4c0,0.4,0.1,0.7,0.2,1c0.1,0.3,0.3,0.5,0.5,0.7c0.2,0.2,0.4,0.3,0.7,0.4
				c0.3,0.1,0.5,0.1,0.8,0.1c0.4,0,0.8-0.1,1.2-0.2c0.4-0.2,0.7-0.3,0.9-0.5h0.1v1.1c-0.3,0.1-0.7,0.3-1,0.4
				c-0.4,0.1-0.7,0.1-1.1,0.1c-1,0-1.8-0.3-2.3-0.8c-0.6-0.5-0.8-1.3-0.8-2.3c0-1,0.3-1.8,0.8-2.3c0.5-0.6,1.2-0.9,2.1-0.9
				c0.8,0,1.4,0.2,1.9,0.7c0.4,0.5,0.7,1.1,0.7,2V31.3z M104.6,30.6c0-0.5-0.1-0.9-0.4-1.2c-0.3-0.3-0.7-0.4-1.2-0.4
				c-0.5,0-1,0.2-1.3,0.5c-0.3,0.3-0.5,0.7-0.5,1.2H104.6z"/>
			<path fill="#FFFFFF" d="M112.5,34.2h-1v-0.6c-0.1,0.1-0.2,0.1-0.4,0.3c-0.2,0.1-0.3,0.2-0.4,0.3c-0.2,0.1-0.4,0.2-0.6,0.2
				c-0.2,0.1-0.5,0.1-0.8,0.1c-0.5,0-1-0.2-1.4-0.5c-0.4-0.4-0.6-0.8-0.6-1.4c0-0.5,0.1-0.8,0.3-1.1c0.2-0.3,0.5-0.5,0.8-0.7
				c0.4-0.2,0.8-0.3,1.3-0.3c0.5-0.1,1.1-0.1,1.6-0.1v-0.2c0-0.2,0-0.4-0.1-0.6c-0.1-0.2-0.2-0.3-0.3-0.4c-0.1-0.1-0.3-0.1-0.5-0.2
				c-0.2,0-0.4,0-0.6,0c-0.3,0-0.6,0-0.9,0.1c-0.3,0.1-0.7,0.2-1,0.3h-0.1v-1c0.2-0.1,0.5-0.1,0.9-0.2c0.4-0.1,0.7-0.1,1.1-0.1
				c0.4,0,0.8,0,1.1,0.1c0.3,0.1,0.6,0.2,0.8,0.4c0.2,0.2,0.4,0.4,0.5,0.6c0.1,0.3,0.2,0.6,0.2,1V34.2z M111.5,32.8v-1.7
				c-0.3,0-0.7,0-1.1,0.1c-0.4,0-0.7,0.1-1,0.2c-0.3,0.1-0.5,0.2-0.7,0.4c-0.2,0.2-0.3,0.4-0.3,0.7c0,0.3,0.1,0.6,0.3,0.8
				c0.2,0.2,0.5,0.3,1,0.3c0.4,0,0.7-0.1,1-0.2C110.9,33.1,111.2,33,111.5,32.8z"/>
			<path fill="#FFFFFF" d="M118.8,29.3L118.8,29.3c-0.2,0-0.4-0.1-0.5-0.1c-0.1,0-0.3,0-0.5,0c-0.3,0-0.6,0.1-0.9,0.2
				c-0.3,0.1-0.6,0.3-0.8,0.5v4.3h-1v-6h1v0.9c0.4-0.3,0.8-0.6,1.1-0.7c0.3-0.1,0.6-0.2,0.9-0.2c0.2,0,0.3,0,0.4,0
				c0.1,0,0.2,0,0.4,0.1V29.3z"/>
			<path fill="#FFFFFF" d="M124.9,33.9c-0.3,0.2-0.7,0.3-1,0.4c-0.3,0.1-0.6,0.1-1,0.1c-0.4,0-0.8-0.1-1.2-0.2
				c-0.4-0.1-0.7-0.3-0.9-0.6c-0.3-0.3-0.5-0.6-0.6-1c-0.1-0.4-0.2-0.9-0.2-1.4c0-1,0.3-1.8,0.8-2.3c0.5-0.6,1.2-0.8,2.1-0.8
				c0.3,0,0.7,0,1,0.1c0.3,0.1,0.6,0.2,0.9,0.4v1.1h-0.1c-0.3-0.2-0.6-0.4-1-0.5c-0.3-0.1-0.6-0.2-1-0.2c-0.6,0-1,0.2-1.4,0.6
				c-0.3,0.4-0.5,0.9-0.5,1.7c0,0.7,0.2,1.3,0.5,1.7c0.3,0.4,0.8,0.6,1.4,0.6c0.2,0,0.4,0,0.6-0.1c0.2-0.1,0.4-0.1,0.6-0.2
				c0.1-0.1,0.3-0.2,0.4-0.2s0.2-0.2,0.3-0.2h0.1V33.9z"/>
			<path fill="#FFFFFF" d="M131.8,34.2h-1v-3.4c0-0.3,0-0.5,0-0.8c0-0.2-0.1-0.4-0.2-0.6c-0.1-0.2-0.2-0.3-0.4-0.3
				c-0.2-0.1-0.4-0.1-0.7-0.1c-0.3,0-0.6,0.1-0.9,0.2c-0.3,0.1-0.6,0.3-0.9,0.5v4.5h-1v-8.4h1v3c0.3-0.3,0.6-0.5,1-0.6
				s0.7-0.2,1-0.2c0.6,0,1.1,0.2,1.5,0.6c0.3,0.4,0.5,1,0.5,1.7V34.2z"/>
			<path fill="#FFFFFF" d="M84.1,43.2h-4v2.3h3.5v0.9h-3.5v3.9H79v-8h5.1V43.2z"/>
			<path fill="#FFFFFF" d="M90.8,47.2c0,1-0.2,1.7-0.8,2.3c-0.5,0.6-1.2,0.8-2,0.8c-0.8,0-1.5-0.3-2-0.8c-0.5-0.6-0.8-1.3-0.8-2.3
				c0-1,0.2-1.7,0.8-2.3c0.5-0.6,1.2-0.9,2-0.9c0.8,0,1.5,0.3,2,0.9C90.5,45.5,90.8,46.3,90.8,47.2z M89.7,47.2
				c0-0.8-0.2-1.4-0.5-1.7c-0.3-0.4-0.7-0.6-1.3-0.6c-0.5,0-1,0.2-1.3,0.6c-0.3,0.4-0.5,1-0.5,1.7c0,0.8,0.2,1.3,0.5,1.7
				c0.3,0.4,0.7,0.6,1.3,0.6c0.5,0,1-0.2,1.3-0.6C89.6,48.6,89.7,48,89.7,47.2z"/>
			<path fill="#FFFFFF" d="M98,50.2h-1v-0.7c-0.3,0.3-0.7,0.5-1,0.6c-0.3,0.1-0.7,0.2-1,0.2c-0.6,0-1.1-0.2-1.5-0.6
				c-0.4-0.4-0.5-0.9-0.5-1.7v-3.9h1v3.4c0,0.3,0,0.6,0,0.8c0,0.2,0.1,0.4,0.2,0.6c0.1,0.2,0.2,0.3,0.4,0.3c0.2,0.1,0.4,0.1,0.7,0.1
				c0.3,0,0.5-0.1,0.9-0.2c0.3-0.1,0.6-0.3,0.9-0.5v-4.5h1V50.2z"/>
			<path fill="#FFFFFF" d="M105.6,50.2h-1v-3.4c0-0.3,0-0.5,0-0.8c0-0.2-0.1-0.4-0.2-0.6c-0.1-0.2-0.2-0.3-0.4-0.3
				c-0.2-0.1-0.4-0.1-0.7-0.1c-0.3,0-0.6,0.1-0.9,0.2c-0.3,0.1-0.6,0.3-0.9,0.5v4.5h-1v-6h1v0.7c0.3-0.3,0.6-0.5,1-0.6
				c0.3-0.1,0.7-0.2,1-0.2c0.6,0,1.1,0.2,1.5,0.6c0.3,0.4,0.5,1,0.5,1.7V50.2z"/>
			<path fill="#FFFFFF" d="M113.1,50.2h-1v-0.6c-0.3,0.3-0.6,0.4-0.9,0.6c-0.3,0.1-0.7,0.2-1,0.2c-0.7,0-1.3-0.3-1.7-0.8
				c-0.4-0.6-0.6-1.3-0.6-2.3c0-0.5,0.1-1,0.2-1.4c0.1-0.4,0.3-0.7,0.6-1c0.2-0.3,0.5-0.5,0.9-0.6c0.3-0.1,0.7-0.2,1-0.2
				c0.3,0,0.6,0,0.8,0.1c0.2,0.1,0.5,0.2,0.8,0.3v-2.6h1V50.2z M112.1,48.8v-3.4c-0.3-0.1-0.5-0.2-0.7-0.3c-0.2,0-0.5-0.1-0.7-0.1
				c-0.6,0-1,0.2-1.3,0.6c-0.3,0.4-0.5,1-0.5,1.7c0,0.7,0.1,1.3,0.4,1.6c0.2,0.4,0.6,0.6,1.2,0.6c0.3,0,0.6-0.1,0.9-0.2
				C111.6,49.1,111.8,49,112.1,48.8z"/>
			<path fill="#FFFFFF" d="M120.4,50.2h-1v-0.6c-0.1,0.1-0.2,0.1-0.4,0.3c-0.2,0.1-0.3,0.2-0.4,0.3c-0.2,0.1-0.4,0.2-0.6,0.2
				c-0.2,0.1-0.5,0.1-0.8,0.1c-0.5,0-1-0.2-1.4-0.5c-0.4-0.4-0.6-0.8-0.6-1.4c0-0.5,0.1-0.8,0.3-1.1c0.2-0.3,0.5-0.5,0.8-0.7
				c0.4-0.2,0.8-0.3,1.3-0.3c0.5-0.1,1.1-0.1,1.6-0.1v-0.2c0-0.2,0-0.4-0.1-0.6c-0.1-0.2-0.2-0.3-0.3-0.4c-0.1-0.1-0.3-0.1-0.5-0.2
				c-0.2,0-0.4,0-0.6,0c-0.3,0-0.6,0-0.9,0.1c-0.3,0.1-0.7,0.2-1,0.3h-0.1v-1c0.2-0.1,0.5-0.1,0.9-0.2c0.4-0.1,0.7-0.1,1.1-0.1
				c0.4,0,0.8,0,1.1,0.1c0.3,0.1,0.6,0.2,0.8,0.4c0.2,0.2,0.4,0.4,0.5,0.6c0.1,0.3,0.2,0.6,0.2,1V50.2z M119.4,48.8v-1.7
				c-0.3,0-0.7,0-1.1,0.1c-0.4,0-0.7,0.1-1,0.2c-0.3,0.1-0.5,0.2-0.7,0.4c-0.2,0.2-0.3,0.4-0.3,0.7c0,0.3,0.1,0.6,0.3,0.8
				c0.2,0.2,0.5,0.3,0.9,0.3c0.4,0,0.7-0.1,1-0.2C118.9,49.1,119.2,49,119.4,48.8z"/>
			<path fill="#FFFFFF" d="M126.1,50.2c-0.2,0.1-0.4,0.1-0.6,0.1c-0.2,0-0.4,0-0.6,0c-0.6,0-1.1-0.2-1.4-0.5
				c-0.3-0.3-0.5-0.9-0.5-1.6v-3.2h-0.7v-0.9h0.7v-1.7h1v1.7h2.1v0.9h-2.1v2.7c0,0.3,0,0.6,0,0.7c0,0.2,0.1,0.3,0.2,0.5
				c0.1,0.1,0.2,0.2,0.3,0.3c0.1,0.1,0.3,0.1,0.6,0.1c0.2,0,0.3,0,0.5-0.1c0.2,0,0.3-0.1,0.4-0.1h0.1V50.2z"/>
			<path fill="#FFFFFF" d="M129.1,43.2H128v-1h1.1V43.2z M129,50.2h-1v-6h1V50.2z"/>
			<path fill="#FFFFFF" d="M136.8,47.2c0,1-0.3,1.7-0.8,2.3c-0.5,0.6-1.2,0.8-2,0.8c-0.8,0-1.5-0.3-2-0.8c-0.5-0.6-0.8-1.3-0.8-2.3
				c0-1,0.2-1.7,0.8-2.3c0.5-0.6,1.2-0.9,2-0.9c0.8,0,1.5,0.3,2,0.9C136.6,45.5,136.8,46.3,136.8,47.2z M135.8,47.2
				c0-0.8-0.2-1.4-0.5-1.7c-0.3-0.4-0.7-0.6-1.3-0.6c-0.5,0-1,0.2-1.3,0.6c-0.3,0.4-0.5,1-0.5,1.7c0,0.8,0.2,1.3,0.5,1.7
				c0.3,0.4,0.7,0.6,1.3,0.6c0.5,0,1-0.2,1.3-0.6C135.6,48.6,135.8,48,135.8,47.2z"/>
			<path fill="#FFFFFF" d="M144,50.2h-1v-3.4c0-0.3,0-0.5,0-0.8c0-0.2-0.1-0.4-0.2-0.6c-0.1-0.2-0.2-0.3-0.4-0.3
				c-0.2-0.1-0.4-0.1-0.7-0.1c-0.3,0-0.6,0.1-0.9,0.2c-0.3,0.1-0.6,0.3-0.9,0.5v4.5h-1v-6h1v0.7c0.3-0.3,0.6-0.5,1-0.6
				c0.3-0.1,0.7-0.2,1-0.2c0.6,0,1.1,0.2,1.5,0.6c0.3,0.4,0.5,1,0.5,1.7V50.2z"/>
		</g>
	</g>
</g>
<g id="MeReFoundtn_PMS_228">
	<path fill="#5F504B" d="M151.7,53.7c0,3.5-2.8,6.4-6.2,6.4H8.9c-3.4,0-6.2-2.9-6.2-6.4V6.4C2.7,2.9,5.4,0,8.9,0h136.6
		c3.4,0,6.2,2.9,6.2,6.4V53.7z"/>
	<path fill="#FFFFFF" d="M50.6,41.5c0,3.5,2.3,6.3,5.5,6.9c0.6,0.1,1.3,0.2,2,0.1c1.8-0.1,3.4-0.8,4.4-1.5l0,2.4
		c-1.1,0.6-2.7,1.3-5.2,1.3l0,0c-5.2,0-9.1-4-9.1-9.2c0-5.3,3.9-9.2,9.1-9.2l0,0c2.5,0,4.1,0.7,5.2,1.3l0,2.4
		c-1-0.7-2.6-1.4-4.4-1.6c-0.7,0-1.3,0-2,0.1C52.9,35.2,50.6,38.1,50.6,41.5z"/>
	<path fill="#FFFFFF" d="M48.2,50.6h-3.2l-5.7-7h-3.8v7h-2.3V32.6h5.2c1.1,0,2,0,2.7,0.2c0.9,0.2,1.5,0.4,2.1,0.8
		c0.6,0.4,1,0.8,1.4,1.5c0.4,0.6,0.6,1.7,0.6,2.6c0,1.2-0.3,2.2-0.9,3.1c-0.6,0.9-1.5,1.7-2.6,2L48.2,50.6L48.2,50.6 M42.9,37.8
		c0-0.5-0.1-1.1-0.3-1.5c-0.2-0.4-0.5-0.7-0.9-1c-0.4-0.2-0.8-0.4-1.3-0.4c-0.5-0.1-1.1-0.1-1.7-0.1h-3.1v6.5h2.8c0.8,0,1.5,0,2-0.2
		c0.5-0.1,1.1-0.4,1.5-0.7c0.4-0.3,0.6-0.7,0.8-1.1C42.8,38.9,42.9,38.4,42.9,37.8L42.9,37.8z"/>
	<path fill="#FFFFFF" d="M28.6,32.6h-3.3l-3.1,8.7c-0.7,2-1.2,3.9-1.7,5.6h-0.1c-0.5-1.7-1-3.6-1.7-5.6l-3.1-8.7h-3.3l-1.3,17.9h2.4
		l0.5-7.7c0.2-2.7,0.3-5.7,0.3-7.9h0.1c0.5,2.1,1.2,4.4,2.1,7l2.9,8.5h2l2.9-8.5c0.9-2.6,1.5-4.8,2.1-7h0.1c0.1,2.2,0.2,5.2,0.3,7.9
		l0.5,7.7h2.4L28.6,32.6z"/>
	<polygon fill="#FFFFFF" points="72,54.6 70.6,54.6 70.6,5.6 72,5.6 72,54.6 	"/>
	<g>
		<path fill="#FFFFFF" d="M85.7,14.7c-0.1-1.1-0.1-2.5-0.1-3.5h0c-0.3,0.9-0.6,2-1,3.1l-1.4,3.9h-0.8L81,14.3
			c-0.4-1.1-0.7-2.2-0.9-3.1h0c0,1-0.1,2.4-0.2,3.6l-0.2,3.5h-1l0.6-8.1h1.3l1.4,3.9c0.3,1,0.6,1.9,0.8,2.7h0
			c0.2-0.8,0.5-1.7,0.9-2.7l1.4-3.9h1.3l0.5,8.1h-1L85.7,14.7z"/>
		<path fill="#FFFFFF" d="M94.1,15.3h-4.4c0,0.4,0.1,0.7,0.2,1c0.1,0.3,0.3,0.5,0.5,0.7c0.2,0.2,0.4,0.3,0.7,0.4
			c0.3,0.1,0.5,0.1,0.8,0.1c0.4,0,0.8-0.1,1.2-0.2c0.4-0.2,0.7-0.3,0.9-0.5H94v1.1c-0.3,0.1-0.7,0.3-1,0.4c-0.4,0.1-0.7,0.1-1.1,0.1
			c-1,0-1.8-0.3-2.3-0.8c-0.6-0.5-0.8-1.3-0.8-2.3c0-1,0.3-1.8,0.8-2.3c0.5-0.6,1.2-0.9,2.1-0.9c0.8,0,1.4,0.2,1.9,0.7
			c0.4,0.5,0.7,1.1,0.7,2V15.3z M93.1,14.6c0-0.5-0.1-0.9-0.4-1.2c-0.3-0.3-0.7-0.4-1.2-0.4c-0.5,0-1,0.2-1.3,0.5
			c-0.3,0.3-0.5,0.7-0.5,1.2H93.1z"/>
		<path fill="#FFFFFF" d="M101.2,18.2h-1v-0.6c-0.3,0.3-0.6,0.4-0.9,0.6c-0.3,0.1-0.7,0.2-1,0.2c-0.7,0-1.3-0.3-1.7-0.8
			c-0.4-0.6-0.6-1.3-0.6-2.3c0-0.5,0.1-1,0.2-1.4c0.1-0.4,0.3-0.7,0.6-1c0.2-0.3,0.5-0.5,0.9-0.6c0.3-0.1,0.7-0.2,1-0.2
			c0.3,0,0.6,0,0.8,0.1c0.2,0.1,0.5,0.2,0.8,0.3V9.9h1V18.2z M100.1,16.8v-3.4c-0.3-0.1-0.5-0.2-0.7-0.3C99.2,13,99,13,98.7,13
			c-0.6,0-1,0.2-1.3,0.6c-0.3,0.4-0.5,1-0.5,1.7c0,0.7,0.1,1.3,0.4,1.6c0.2,0.4,0.6,0.6,1.2,0.6c0.3,0,0.6-0.1,0.9-0.2
			C99.6,17.1,99.9,17,100.1,16.8z"/>
		<path fill="#FFFFFF" d="M104.9,11.2h-1.1v-1h1.1V11.2z M104.8,18.2h-1v-6h1V18.2z"/>
		<path fill="#FFFFFF" d="M111.9,17.9c-0.3,0.2-0.7,0.3-1,0.4c-0.3,0.1-0.6,0.1-1,0.1c-0.4,0-0.8-0.1-1.2-0.2
			c-0.4-0.1-0.7-0.3-0.9-0.6c-0.3-0.3-0.5-0.6-0.6-1c-0.1-0.4-0.2-0.9-0.2-1.4c0-1,0.3-1.8,0.8-2.3c0.5-0.6,1.2-0.8,2.1-0.8
			c0.3,0,0.7,0,1,0.1c0.3,0.1,0.6,0.2,0.9,0.4v1.1h-0.1c-0.3-0.2-0.6-0.4-1-0.5c-0.3-0.1-0.6-0.2-1-0.2c-0.6,0-1,0.2-1.4,0.6
			c-0.3,0.4-0.5,0.9-0.5,1.7c0,0.7,0.2,1.3,0.5,1.7c0.3,0.4,0.8,0.6,1.4,0.6c0.2,0,0.4,0,0.6-0.1c0.2-0.1,0.4-0.1,0.6-0.2
			c0.1-0.1,0.3-0.2,0.4-0.2c0.1-0.1,0.2-0.2,0.3-0.2h0.1V17.9z"/>
		<path fill="#FFFFFF" d="M118.5,18.2h-1v-0.6c-0.1,0.1-0.2,0.1-0.4,0.3c-0.2,0.1-0.3,0.2-0.4,0.3c-0.2,0.1-0.4,0.2-0.6,0.2
			c-0.2,0.1-0.5,0.1-0.8,0.1c-0.5,0-1-0.2-1.4-0.5c-0.4-0.4-0.6-0.8-0.6-1.4c0-0.5,0.1-0.8,0.3-1.1c0.2-0.3,0.5-0.5,0.8-0.7
			c0.4-0.2,0.8-0.3,1.3-0.3c0.5-0.1,1.1-0.1,1.6-0.1v-0.2c0-0.2,0-0.4-0.1-0.6c-0.1-0.2-0.2-0.3-0.3-0.4c-0.1-0.1-0.3-0.1-0.5-0.2
			c-0.2,0-0.4,0-0.6,0c-0.3,0-0.6,0-0.9,0.1c-0.3,0.1-0.7,0.2-1,0.3H114v-1c0.2-0.1,0.5-0.1,0.9-0.2c0.4-0.1,0.7-0.1,1.1-0.1
			c0.4,0,0.8,0,1.1,0.1c0.3,0.1,0.6,0.2,0.8,0.4c0.2,0.2,0.4,0.4,0.5,0.6c0.1,0.3,0.2,0.6,0.2,1V18.2z M117.5,16.8v-1.7
			c-0.3,0-0.7,0-1.1,0.1c-0.4,0-0.7,0.1-1,0.2c-0.3,0.1-0.5,0.2-0.7,0.4c-0.2,0.2-0.3,0.4-0.3,0.7c0,0.3,0.1,0.6,0.3,0.8
			c0.2,0.2,0.5,0.3,1,0.3c0.4,0,0.7-0.1,1-0.2C117,17.1,117.3,17,117.5,16.8z"/>
		<path fill="#FFFFFF" d="M122.2,18.2h-1V9.9h1V18.2z"/>
		<path fill="#FFFFFF" d="M85.7,34.2h-1.4l-2.7-3.2h-1.5v3.2H79v-8h2.2c0.5,0,0.9,0,1.2,0.1c0.3,0.1,0.6,0.2,0.9,0.3
			c0.3,0.2,0.5,0.4,0.7,0.7c0.2,0.3,0.2,0.6,0.2,1.1c0,0.6-0.1,1.1-0.4,1.4c-0.3,0.4-0.7,0.7-1.2,0.9L85.7,34.2z M83.2,28.5
			c0-0.2,0-0.4-0.1-0.6c-0.1-0.2-0.2-0.3-0.4-0.4c-0.2-0.1-0.3-0.2-0.5-0.2c-0.2,0-0.5-0.1-0.7-0.1h-1.3v3h1.1c0.3,0,0.6,0,0.9-0.1
			c0.3-0.1,0.5-0.2,0.6-0.3c0.2-0.2,0.3-0.3,0.4-0.5C83.1,29,83.2,28.8,83.2,28.5z"/>
		<path fill="#FFFFFF" d="M92,31.3h-4.4c0,0.4,0.1,0.7,0.2,1c0.1,0.3,0.3,0.5,0.5,0.7c0.2,0.2,0.4,0.3,0.7,0.4
			c0.3,0.1,0.5,0.1,0.8,0.1c0.4,0,0.8-0.1,1.2-0.2c0.4-0.2,0.7-0.3,0.9-0.5h0.1v1.1c-0.3,0.1-0.7,0.3-1,0.4
			c-0.4,0.1-0.7,0.1-1.1,0.1c-1,0-1.8-0.3-2.3-0.8c-0.6-0.5-0.8-1.3-0.8-2.3c0-1,0.3-1.8,0.8-2.3c0.5-0.6,1.2-0.9,2.1-0.9
			c0.8,0,1.4,0.2,1.9,0.7c0.4,0.5,0.7,1.1,0.7,2V31.3z M91,30.6c0-0.5-0.1-0.9-0.4-1.2c-0.3-0.3-0.7-0.4-1.2-0.4
			c-0.5,0-1,0.2-1.3,0.5c-0.3,0.3-0.5,0.7-0.5,1.2H91z"/>
		<path fill="#FFFFFF" d="M98.5,32.5c0,0.5-0.2,1-0.7,1.4c-0.5,0.4-1.1,0.5-1.9,0.5c-0.4,0-0.9-0.1-1.2-0.2
			c-0.4-0.1-0.7-0.2-0.9-0.3v-1.1h0.1c0.3,0.2,0.7,0.4,1.1,0.6c0.4,0.1,0.8,0.2,1.1,0.2c0.4,0,0.8-0.1,1-0.2
			c0.2-0.1,0.4-0.4,0.4-0.7c0-0.2-0.1-0.4-0.2-0.5c-0.1-0.1-0.4-0.2-0.8-0.3c-0.1,0-0.3-0.1-0.6-0.1c-0.2,0-0.4-0.1-0.6-0.1
			c-0.5-0.1-0.9-0.3-1.1-0.6c-0.2-0.3-0.3-0.6-0.3-1c0-0.2,0.1-0.5,0.2-0.7c0.1-0.2,0.3-0.4,0.5-0.6c0.2-0.2,0.5-0.3,0.8-0.4
			c0.3-0.1,0.7-0.1,1-0.1c0.4,0,0.7,0,1.1,0.1c0.4,0.1,0.7,0.2,0.9,0.3v1.1h-0.1c-0.3-0.2-0.6-0.4-0.9-0.5c-0.4-0.1-0.7-0.2-1.1-0.2
			c-0.4,0-0.7,0.1-0.9,0.2c-0.3,0.1-0.4,0.4-0.4,0.6c0,0.2,0.1,0.4,0.2,0.6c0.2,0.1,0.4,0.2,0.7,0.3c0.2,0,0.4,0.1,0.6,0.1
			c0.2,0,0.4,0.1,0.6,0.1c0.5,0.1,0.8,0.3,1.1,0.6C98.4,31.7,98.5,32.1,98.5,32.5z"/>
		<path fill="#FFFFFF" d="M105.6,31.3h-4.4c0,0.4,0.1,0.7,0.2,1c0.1,0.3,0.3,0.5,0.5,0.7c0.2,0.2,0.4,0.3,0.7,0.4
			c0.3,0.1,0.5,0.1,0.8,0.1c0.4,0,0.8-0.1,1.2-0.2c0.4-0.2,0.7-0.3,0.9-0.5h0.1v1.1c-0.3,0.1-0.7,0.3-1,0.4
			c-0.4,0.1-0.7,0.1-1.1,0.1c-1,0-1.8-0.3-2.3-0.8c-0.6-0.5-0.8-1.3-0.8-2.3c0-1,0.3-1.8,0.8-2.3c0.5-0.6,1.2-0.9,2.1-0.9
			c0.8,0,1.4,0.2,1.9,0.7c0.4,0.5,0.7,1.1,0.7,2V31.3z M104.6,30.6c0-0.5-0.1-0.9-0.4-1.2c-0.3-0.3-0.7-0.4-1.2-0.4
			c-0.5,0-1,0.2-1.3,0.5c-0.3,0.3-0.5,0.7-0.5,1.2H104.6z"/>
		<path fill="#FFFFFF" d="M112.5,34.2h-1v-0.6c-0.1,0.1-0.2,0.1-0.4,0.3c-0.2,0.1-0.3,0.2-0.4,0.3c-0.2,0.1-0.4,0.2-0.6,0.2
			c-0.2,0.1-0.5,0.1-0.8,0.1c-0.5,0-1-0.2-1.4-0.5c-0.4-0.4-0.6-0.8-0.6-1.4c0-0.5,0.1-0.8,0.3-1.1c0.2-0.3,0.5-0.5,0.8-0.7
			c0.4-0.2,0.8-0.3,1.3-0.3c0.5-0.1,1.1-0.1,1.6-0.1v-0.2c0-0.2,0-0.4-0.1-0.6c-0.1-0.2-0.2-0.3-0.3-0.4c-0.1-0.1-0.3-0.1-0.5-0.2
			c-0.2,0-0.4,0-0.6,0c-0.3,0-0.6,0-0.9,0.1c-0.3,0.1-0.7,0.2-1,0.3h-0.1v-1c0.2-0.1,0.5-0.1,0.9-0.2c0.4-0.1,0.7-0.1,1.1-0.1
			c0.4,0,0.8,0,1.1,0.1c0.3,0.1,0.6,0.2,0.8,0.4c0.2,0.2,0.4,0.4,0.5,0.6c0.1,0.3,0.2,0.6,0.2,1V34.2z M111.5,32.8v-1.7
			c-0.3,0-0.7,0-1.1,0.1c-0.4,0-0.7,0.1-1,0.2c-0.3,0.1-0.5,0.2-0.7,0.4c-0.2,0.2-0.3,0.4-0.3,0.7c0,0.3,0.1,0.6,0.3,0.8
			c0.2,0.2,0.5,0.3,1,0.3c0.4,0,0.7-0.1,1-0.2C110.9,33.1,111.2,33,111.5,32.8z"/>
		<path fill="#FFFFFF" d="M118.8,29.3L118.8,29.3c-0.2,0-0.4-0.1-0.5-0.1c-0.1,0-0.3,0-0.5,0c-0.3,0-0.6,0.1-0.9,0.2
			c-0.3,0.1-0.6,0.3-0.8,0.5v4.3h-1v-6h1v0.9c0.4-0.3,0.8-0.6,1.1-0.7c0.3-0.1,0.6-0.2,0.9-0.2c0.2,0,0.3,0,0.4,0
			c0.1,0,0.2,0,0.4,0.1V29.3z"/>
		<path fill="#FFFFFF" d="M124.9,33.9c-0.3,0.2-0.7,0.3-1,0.4c-0.3,0.1-0.6,0.1-1,0.1c-0.4,0-0.8-0.1-1.2-0.2
			c-0.4-0.1-0.7-0.3-0.9-0.6c-0.3-0.3-0.5-0.6-0.6-1c-0.1-0.4-0.2-0.9-0.2-1.4c0-1,0.3-1.8,0.8-2.3c0.5-0.6,1.2-0.8,2.1-0.8
			c0.3,0,0.7,0,1,0.1c0.3,0.1,0.6,0.2,0.9,0.4v1.1h-0.1c-0.3-0.2-0.6-0.4-1-0.5c-0.3-0.1-0.6-0.2-1-0.2c-0.6,0-1,0.2-1.4,0.6
			c-0.3,0.4-0.5,0.9-0.5,1.7c0,0.7,0.2,1.3,0.5,1.7c0.3,0.4,0.8,0.6,1.4,0.6c0.2,0,0.4,0,0.6-0.1c0.2-0.1,0.4-0.1,0.6-0.2
			c0.1-0.1,0.3-0.2,0.4-0.2s0.2-0.2,0.3-0.2h0.1V33.9z"/>
		<path fill="#FFFFFF" d="M131.8,34.2h-1v-3.4c0-0.3,0-0.5,0-0.8c0-0.2-0.1-0.4-0.2-0.6c-0.1-0.2-0.2-0.3-0.4-0.3
			c-0.2-0.1-0.4-0.1-0.7-0.1c-0.3,0-0.6,0.1-0.9,0.2c-0.3,0.1-0.6,0.3-0.9,0.5v4.5h-1v-8.4h1v3c0.3-0.3,0.6-0.5,1-0.6s0.7-0.2,1-0.2
			c0.6,0,1.1,0.2,1.5,0.6c0.3,0.4,0.5,1,0.5,1.7V34.2z"/>
		<path fill="#FFFFFF" d="M84.1,43.2h-4v2.3h3.5v0.9h-3.5v3.9H79v-8h5.1V43.2z"/>
		<path fill="#FFFFFF" d="M90.8,47.2c0,1-0.2,1.7-0.8,2.3c-0.5,0.6-1.2,0.8-2,0.8c-0.8,0-1.5-0.3-2-0.8c-0.5-0.6-0.8-1.3-0.8-2.3
			c0-1,0.2-1.7,0.8-2.3c0.5-0.6,1.2-0.9,2-0.9c0.8,0,1.5,0.3,2,0.9C90.5,45.5,90.8,46.3,90.8,47.2z M89.7,47.2
			c0-0.8-0.2-1.4-0.5-1.7c-0.3-0.4-0.7-0.6-1.3-0.6c-0.5,0-1,0.2-1.3,0.6c-0.3,0.4-0.5,1-0.5,1.7c0,0.8,0.2,1.3,0.5,1.7
			c0.3,0.4,0.7,0.6,1.3,0.6c0.5,0,1-0.2,1.3-0.6C89.6,48.6,89.7,48,89.7,47.2z"/>
		<path fill="#FFFFFF" d="M98,50.2h-1v-0.7c-0.3,0.3-0.7,0.5-1,0.6c-0.3,0.1-0.7,0.2-1,0.2c-0.6,0-1.1-0.2-1.5-0.6
			c-0.4-0.4-0.5-0.9-0.5-1.7v-3.9h1v3.4c0,0.3,0,0.6,0,0.8c0,0.2,0.1,0.4,0.2,0.6c0.1,0.2,0.2,0.3,0.4,0.3c0.2,0.1,0.4,0.1,0.7,0.1
			c0.3,0,0.5-0.1,0.9-0.2c0.3-0.1,0.6-0.3,0.9-0.5v-4.5h1V50.2z"/>
		<path fill="#FFFFFF" d="M105.6,50.2h-1v-3.4c0-0.3,0-0.5,0-0.8c0-0.2-0.1-0.4-0.2-0.6c-0.1-0.2-0.2-0.3-0.4-0.3
			c-0.2-0.1-0.4-0.1-0.7-0.1c-0.3,0-0.6,0.1-0.9,0.2c-0.3,0.1-0.6,0.3-0.9,0.5v4.5h-1v-6h1v0.7c0.3-0.3,0.6-0.5,1-0.6
			c0.3-0.1,0.7-0.2,1-0.2c0.6,0,1.1,0.2,1.5,0.6c0.3,0.4,0.5,1,0.5,1.7V50.2z"/>
		<path fill="#FFFFFF" d="M113.1,50.2h-1v-0.6c-0.3,0.3-0.6,0.4-0.9,0.6c-0.3,0.1-0.7,0.2-1,0.2c-0.7,0-1.3-0.3-1.7-0.8
			c-0.4-0.6-0.6-1.3-0.6-2.3c0-0.5,0.1-1,0.2-1.4c0.1-0.4,0.3-0.7,0.6-1c0.2-0.3,0.5-0.5,0.9-0.6c0.3-0.1,0.7-0.2,1-0.2
			c0.3,0,0.6,0,0.8,0.1c0.2,0.1,0.5,0.2,0.8,0.3v-2.6h1V50.2z M112.1,48.8v-3.4c-0.3-0.1-0.5-0.2-0.7-0.3c-0.2,0-0.5-0.1-0.7-0.1
			c-0.6,0-1,0.2-1.3,0.6c-0.3,0.4-0.5,1-0.5,1.7c0,0.7,0.1,1.3,0.4,1.6c0.2,0.4,0.6,0.6,1.2,0.6c0.3,0,0.6-0.1,0.9-0.2
			C111.6,49.1,111.8,49,112.1,48.8z"/>
		<path fill="#FFFFFF" d="M120.4,50.2h-1v-0.6c-0.1,0.1-0.2,0.1-0.4,0.3c-0.2,0.1-0.3,0.2-0.4,0.3c-0.2,0.1-0.4,0.2-0.6,0.2
			c-0.2,0.1-0.5,0.1-0.8,0.1c-0.5,0-1-0.2-1.4-0.5c-0.4-0.4-0.6-0.8-0.6-1.4c0-0.5,0.1-0.8,0.3-1.1c0.2-0.3,0.5-0.5,0.8-0.7
			c0.4-0.2,0.8-0.3,1.3-0.3c0.5-0.1,1.1-0.1,1.6-0.1v-0.2c0-0.2,0-0.4-0.1-0.6c-0.1-0.2-0.2-0.3-0.3-0.4c-0.1-0.1-0.3-0.1-0.5-0.2
			c-0.2,0-0.4,0-0.6,0c-0.3,0-0.6,0-0.9,0.1c-0.3,0.1-0.7,0.2-1,0.3h-0.1v-1c0.2-0.1,0.5-0.1,0.9-0.2c0.4-0.1,0.7-0.1,1.1-0.1
			c0.4,0,0.8,0,1.1,0.1c0.3,0.1,0.6,0.2,0.8,0.4c0.2,0.2,0.4,0.4,0.5,0.6c0.1,0.3,0.2,0.6,0.2,1V50.2z M119.4,48.8v-1.7
			c-0.3,0-0.7,0-1.1,0.1c-0.4,0-0.7,0.1-1,0.2c-0.3,0.1-0.5,0.2-0.7,0.4c-0.2,0.2-0.3,0.4-0.3,0.7c0,0.3,0.1,0.6,0.3,0.8
			c0.2,0.2,0.5,0.3,0.9,0.3c0.4,0,0.7-0.1,1-0.2C118.9,49.1,119.2,49,119.4,48.8z"/>
		<path fill="#FFFFFF" d="M126.1,50.2c-0.2,0.1-0.4,0.1-0.6,0.1c-0.2,0-0.4,0-0.6,0c-0.6,0-1.1-0.2-1.4-0.5
			c-0.3-0.3-0.5-0.9-0.5-1.6v-3.2h-0.7v-0.9h0.7v-1.7h1v1.7h2.1v0.9h-2.1v2.7c0,0.3,0,0.6,0,0.7c0,0.2,0.1,0.3,0.2,0.5
			c0.1,0.1,0.2,0.2,0.3,0.3c0.1,0.1,0.3,0.1,0.6,0.1c0.2,0,0.3,0,0.5-0.1c0.2,0,0.3-0.1,0.4-0.1h0.1V50.2z"/>
		<path fill="#FFFFFF" d="M129.1,43.2H128v-1h1.1V43.2z M129,50.2h-1v-6h1V50.2z"/>
		<path fill="#FFFFFF" d="M136.8,47.2c0,1-0.3,1.7-0.8,2.3c-0.5,0.6-1.2,0.8-2,0.8c-0.8,0-1.5-0.3-2-0.8c-0.5-0.6-0.8-1.3-0.8-2.3
			c0-1,0.2-1.7,0.8-2.3c0.5-0.6,1.2-0.9,2-0.9c0.8,0,1.5,0.3,2,0.9C136.6,45.5,136.8,46.3,136.8,47.2z M135.8,47.2
			c0-0.8-0.2-1.4-0.5-1.7c-0.3-0.4-0.7-0.6-1.3-0.6c-0.5,0-1,0.2-1.3,0.6c-0.3,0.4-0.5,1-0.5,1.7c0,0.8,0.2,1.3,0.5,1.7
			c0.3,0.4,0.7,0.6,1.3,0.6c0.5,0,1-0.2,1.3-0.6C135.6,48.6,135.8,48,135.8,47.2z"/>
		<path fill="#FFFFFF" d="M144,50.2h-1v-3.4c0-0.3,0-0.5,0-0.8c0-0.2-0.1-0.4-0.2-0.6c-0.1-0.2-0.2-0.3-0.4-0.3
			c-0.2-0.1-0.4-0.1-0.7-0.1c-0.3,0-0.6,0.1-0.9,0.2c-0.3,0.1-0.6,0.3-0.9,0.5v4.5h-1v-6h1v0.7c0.3-0.3,0.6-0.5,1-0.6
			c0.3-0.1,0.7-0.2,1-0.2c0.6,0,1.1,0.2,1.5,0.6c0.3,0.4,0.5,1,0.5,1.7V50.2z"/>
	</g>
</g>
</svg>
