<?xml version="1.0" encoding="utf-8"?>
<!-- Generator: Adobe Illustrator 18.1.0, SVG Export Plug-In . SVG Version: 6.00 Build 0)  -->
<!DOCTYPE svg PUBLIC "-//W3C//DTD SVG 1.1//EN" "http://www.w3.org/Graphics/SVG/1.1/DTD/svg11.dtd">
<svg version="1.1" id="Laboratory_of_Mole" xmlns="http://www.w3.org/2000/svg" xmlns:xlink="http://www.w3.org/1999/xlink" x="0px"
	 y="0px" viewBox="0 0 201.3 59.9" enable-background="new 0 0 201.3 59.9" xml:space="preserve">
<path fill="#5F504B" d="M201.3,53.9c0,3.1-2.5,5.7-5.7,5.7H5.7C2.5,59.5,0,57,0,53.9V5.7C0,2.5,2.5,0,5.7,0h189.9
	c3.1,0,5.7,2.5,5.7,5.7V53.9z"/>
<path fill="#FFFFFF" d="M47.6,41.1c0,3.5,2.3,6.3,5.5,6.9c0.6,0.1,1.3,0.2,2,0.1c1.8-0.1,3.4-0.8,4.4-1.5l0,2.4
	c-1.1,0.6-2.7,1.3-5.2,1.3l0,0c-5.2,0-9.1-4-9.1-9.2c0-5.3,3.9-9.2,9.1-9.2l0,0c2.5,0,4.1,0.7,5.2,1.3l0,2.4c-1-0.7-2.6-1.4-4.4-1.6
	c-0.7,0-1.3,0-2,0.1C49.9,34.8,47.6,37.6,47.6,41.1z"/>
<path fill="#FFFFFF" d="M45.3,50.1h-3.2l-5.7-7h-3.8v7h-2.3V32.2h5.2c1.1,0,2,0,2.7,0.2c0.9,0.2,1.5,0.4,2.1,0.8
	c0.6,0.4,1,0.8,1.4,1.5c0.4,0.6,0.6,1.7,0.6,2.6c0,1.2-0.3,2.2-0.9,3.1c-0.6,0.9-1.5,1.7-2.6,2L45.3,50.1L45.3,50.1 M40,37.3
	c0-0.5-0.1-1.1-0.3-1.5c-0.2-0.4-0.5-0.7-0.9-1c-0.4-0.2-0.8-0.4-1.3-0.4c-0.5-0.1-1.1-0.1-1.7-0.1h-3.1v6.5h2.8c0.8,0,1.5,0,2-0.2
	c0.5-0.1,1.1-0.4,1.5-0.7c0.4-0.3,0.6-0.7,0.8-1.1C39.9,38.4,40,37.9,40,37.3L40,37.3z"/>
<path fill="#FFFFFF" d="M25.7,32.2h-3.3l-3.1,8.7c-0.7,2-1.2,3.9-1.7,5.6h-0.1c-0.5-1.7-1-3.6-1.7-5.6l-3.1-8.7H9.6L8.4,50.1h2.4
	l0.5-7.7c0.2-2.7,0.3-5.7,0.3-7.9h0.1c0.5,2.1,1.2,4.4,2.1,7l2.9,8.5h2l2.9-8.5c0.9-2.6,1.5-4.8,2.1-7h0.1c0.1,2.2,0.2,5.2,0.3,7.9
	l0.5,7.7h2.4L25.7,32.2z"/>
<polygon fill="#FFFFFF" points="69.1,54.2 67.7,54.2 67.7,5.1 69.1,5.1 69.1,54.1 "/>
<g>
	<path fill="#FFFFFF" d="M81.6,33.8h-5.1v-8h1.1v7h4V33.8z"/>
	<path fill="#FFFFFF" d="M87.7,33.8h-1v-0.6c-0.1,0.1-0.2,0.1-0.4,0.3c-0.2,0.1-0.3,0.2-0.4,0.3c-0.2,0.1-0.4,0.2-0.6,0.2
		C85.1,34,84.9,34,84.6,34c-0.5,0-1-0.2-1.4-0.5c-0.4-0.4-0.6-0.8-0.6-1.4c0-0.5,0.1-0.8,0.3-1.1c0.2-0.3,0.5-0.5,0.8-0.7
		c0.4-0.2,0.8-0.3,1.3-0.3c0.5-0.1,1.1-0.1,1.6-0.1v-0.2c0-0.2,0-0.4-0.1-0.6c-0.1-0.2-0.2-0.3-0.3-0.4c-0.1-0.1-0.3-0.1-0.5-0.2
		c-0.2,0-0.4,0-0.6,0c-0.3,0-0.6,0-0.9,0.1c-0.3,0.1-0.7,0.2-1,0.3h-0.1v-1c0.2-0.1,0.5-0.1,0.9-0.2c0.4-0.1,0.7-0.1,1.1-0.1
		c0.4,0,0.8,0,1.1,0.1c0.3,0.1,0.6,0.2,0.8,0.4c0.2,0.2,0.4,0.4,0.5,0.6c0.1,0.3,0.2,0.6,0.2,1V33.8z M86.7,32.4v-1.7
		c-0.3,0-0.7,0-1.1,0.1c-0.4,0-0.7,0.1-1,0.2c-0.3,0.1-0.5,0.2-0.7,0.4c-0.2,0.2-0.3,0.4-0.3,0.7c0,0.3,0.1,0.6,0.3,0.8
		c0.2,0.2,0.5,0.3,0.9,0.3c0.4,0,0.7-0.1,1-0.2C86.2,32.7,86.5,32.6,86.7,32.4z"/>
	<path fill="#FFFFFF" d="M95.4,30.8c0,0.5-0.1,1-0.2,1.4c-0.1,0.4-0.3,0.7-0.6,1c-0.3,0.3-0.5,0.5-0.8,0.6c-0.3,0.1-0.6,0.2-1,0.2
		c-0.3,0-0.6,0-0.9-0.1c-0.3-0.1-0.5-0.2-0.8-0.3l-0.1,0.3h-1v-8.4h1v3c0.3-0.2,0.6-0.4,0.9-0.6c0.3-0.1,0.7-0.2,1.1-0.2
		c0.7,0,1.3,0.3,1.7,0.8C95.2,29,95.4,29.8,95.4,30.8z M94.4,30.8c0-0.7-0.1-1.3-0.4-1.6c-0.2-0.4-0.6-0.6-1.1-0.6
		c-0.3,0-0.6,0.1-0.9,0.2c-0.3,0.1-0.6,0.3-0.8,0.5v3.4c0.3,0.1,0.5,0.2,0.7,0.3c0.2,0.1,0.4,0.1,0.7,0.1c0.6,0,1-0.2,1.3-0.6
		C94.2,32.2,94.4,31.6,94.4,30.8z"/>
	<path fill="#FFFFFF" d="M102.5,30.8c0,1-0.3,1.8-0.8,2.3c-0.5,0.6-1.2,0.9-2,0.9c-0.8,0-1.5-0.3-2-0.9c-0.5-0.6-0.8-1.3-0.8-2.3
		s0.2-1.8,0.8-2.3c0.5-0.6,1.2-0.9,2-0.9c0.8,0,1.5,0.3,2,0.9C102.3,29.1,102.5,29.9,102.5,30.8z M101.5,30.8c0-0.8-0.2-1.4-0.5-1.7
		c-0.3-0.4-0.7-0.6-1.3-0.6c-0.5,0-1,0.2-1.3,0.6c-0.3,0.4-0.5,1-0.5,1.7c0,0.8,0.2,1.3,0.5,1.7c0.3,0.4,0.7,0.6,1.3,0.6
		c0.5,0,1-0.2,1.3-0.6C101.3,32.2,101.5,31.6,101.5,30.8z"/>
	<path fill="#FFFFFF" d="M108.3,28.9L108.3,28.9c-0.2,0-0.3-0.1-0.5-0.1c-0.1,0-0.3,0-0.5,0c-0.3,0-0.6,0.1-0.9,0.2
		c-0.3,0.1-0.6,0.3-0.8,0.5v4.3h-1v-6h1v0.9c0.4-0.3,0.8-0.6,1.1-0.7c0.3-0.1,0.6-0.2,0.9-0.2c0.2,0,0.3,0,0.4,0
		c0.1,0,0.2,0,0.4,0.1V28.9z"/>
	<path fill="#FFFFFF" d="M114.1,33.8h-1v-0.6c-0.1,0.1-0.2,0.1-0.4,0.3c-0.2,0.1-0.3,0.2-0.4,0.3c-0.2,0.1-0.4,0.2-0.6,0.2
		c-0.2,0.1-0.5,0.1-0.8,0.1c-0.5,0-1-0.2-1.4-0.5c-0.4-0.4-0.6-0.8-0.6-1.4c0-0.5,0.1-0.8,0.3-1.1c0.2-0.3,0.5-0.5,0.8-0.7
		c0.4-0.2,0.8-0.3,1.3-0.3c0.5-0.1,1.1-0.1,1.6-0.1v-0.2c0-0.2,0-0.4-0.1-0.6c-0.1-0.2-0.2-0.3-0.3-0.4c-0.1-0.1-0.3-0.1-0.5-0.2
		c-0.2,0-0.4,0-0.6,0c-0.3,0-0.6,0-0.9,0.1c-0.3,0.1-0.7,0.2-1,0.3h-0.1v-1c0.2-0.1,0.5-0.1,0.9-0.2c0.4-0.1,0.7-0.1,1.1-0.1
		c0.4,0,0.8,0,1.1,0.1c0.3,0.1,0.6,0.2,0.8,0.4c0.2,0.2,0.4,0.4,0.5,0.6c0.1,0.3,0.2,0.6,0.2,1V33.8z M113.1,32.4v-1.7
		c-0.3,0-0.7,0-1.1,0.1c-0.4,0-0.7,0.1-1,0.2c-0.3,0.1-0.5,0.2-0.7,0.4c-0.2,0.2-0.3,0.4-0.3,0.7c0,0.3,0.1,0.6,0.3,0.8
		c0.2,0.2,0.5,0.3,0.9,0.3c0.4,0,0.7-0.1,1-0.2C112.6,32.7,112.9,32.6,113.1,32.4z"/>
	<path fill="#FFFFFF" d="M119.6,33.8c-0.2,0-0.4,0.1-0.6,0.1c-0.2,0-0.4,0-0.6,0c-0.6,0-1.1-0.2-1.4-0.5c-0.3-0.3-0.5-0.9-0.5-1.6
		v-3.2h-0.7v-0.8h0.7v-1.7h1v1.7h2.1v0.8h-2.1v2.8c0,0.3,0,0.6,0,0.7c0,0.2,0.1,0.3,0.1,0.5c0.1,0.1,0.2,0.2,0.3,0.3
		c0.1,0.1,0.3,0.1,0.6,0.1c0.2,0,0.3,0,0.5-0.1c0.2,0,0.3-0.1,0.4-0.1h0.1V33.8z"/>
	<path fill="#FFFFFF" d="M126.4,30.8c0,1-0.3,1.8-0.8,2.3c-0.5,0.6-1.2,0.9-2,0.9c-0.9,0-1.5-0.3-2-0.9c-0.5-0.6-0.8-1.3-0.8-2.3
		s0.2-1.8,0.8-2.3c0.5-0.6,1.2-0.9,2-0.9c0.8,0,1.5,0.3,2,0.9C126.1,29.1,126.4,29.9,126.4,30.8z M125.4,30.8c0-0.8-0.2-1.4-0.5-1.7
		c-0.3-0.4-0.7-0.6-1.3-0.6c-0.5,0-1,0.2-1.3,0.6c-0.3,0.4-0.5,1-0.5,1.7c0,0.8,0.2,1.3,0.5,1.7c0.3,0.4,0.7,0.6,1.3,0.6
		c0.5,0,1-0.2,1.3-0.6C125.2,32.2,125.4,31.6,125.4,30.8z"/>
	<path fill="#FFFFFF" d="M132.1,28.9L132.1,28.9c-0.2,0-0.3-0.1-0.5-0.1c-0.1,0-0.3,0-0.5,0c-0.3,0-0.6,0.1-0.9,0.2
		c-0.3,0.1-0.6,0.3-0.8,0.5v4.3h-1v-6h1v0.9c0.4-0.3,0.8-0.6,1.1-0.7c0.3-0.1,0.6-0.2,0.9-0.2c0.2,0,0.3,0,0.4,0
		c0.1,0,0.2,0,0.4,0.1V28.9z"/>
	<path fill="#FFFFFF" d="M138.7,27.8l-3.5,8.2h-1.1l1.1-2.5l-2.4-5.7h1.1l1.8,4.4l1.9-4.4H138.7z"/>
	<path fill="#FFFFFF" d="M149.9,30.8c0,1-0.3,1.8-0.8,2.3c-0.5,0.6-1.2,0.9-2,0.9c-0.8,0-1.5-0.3-2-0.9c-0.5-0.6-0.8-1.3-0.8-2.3
		s0.2-1.8,0.8-2.3c0.5-0.6,1.2-0.9,2-0.9c0.8,0,1.5,0.3,2,0.9C149.7,29.1,149.9,29.9,149.9,30.8z M148.9,30.8c0-0.8-0.2-1.4-0.5-1.7
		c-0.3-0.4-0.7-0.6-1.3-0.6c-0.5,0-1,0.2-1.3,0.6c-0.3,0.4-0.5,1-0.5,1.7c0,0.8,0.2,1.3,0.5,1.7c0.3,0.4,0.7,0.6,1.3,0.6
		c0.5,0,1-0.2,1.3-0.6C148.7,32.2,148.9,31.6,148.9,30.8z"/>
	<path fill="#FFFFFF" d="M155.1,26.5L155.1,26.5c-0.2,0-0.3-0.1-0.5-0.1c-0.2,0-0.3-0.1-0.5-0.1c-0.4,0-0.7,0.1-0.9,0.3
		c-0.2,0.2-0.3,0.5-0.3,1v0.2h1.8v0.8H153v5.2h-1v-5.2h-0.7v-0.8h0.7v-0.2c0-0.7,0.2-1.3,0.5-1.6c0.4-0.4,0.9-0.6,1.5-0.6
		c0.2,0,0.4,0,0.6,0c0.2,0,0.3,0,0.5,0.1V26.5z"/>
	<path fill="#FFFFFF" d="M83.7,49.8h-1.1v-6.9l-2.2,4.7h-0.6l-2.2-4.7v6.9h-1v-8H78l2.1,4.5l2.1-4.5h1.5V49.8z"/>
	<path fill="#FFFFFF" d="M91.3,46.8c0,1-0.3,1.8-0.8,2.3c-0.5,0.6-1.2,0.9-2,0.9c-0.8,0-1.5-0.3-2-0.9c-0.5-0.6-0.8-1.3-0.8-2.3
		s0.2-1.8,0.8-2.3c0.5-0.6,1.2-0.9,2-0.9c0.8,0,1.5,0.3,2,0.9C91.1,45.1,91.3,45.9,91.3,46.8z M90.3,46.8c0-0.8-0.2-1.4-0.5-1.7
		c-0.3-0.4-0.7-0.6-1.3-0.6c-0.5,0-1,0.2-1.3,0.6c-0.3,0.4-0.5,1-0.5,1.7c0,0.8,0.2,1.3,0.5,1.7c0.3,0.4,0.7,0.6,1.3,0.6
		c0.5,0,1-0.2,1.3-0.6C90.1,48.2,90.3,47.6,90.3,46.8z"/>
	<path fill="#FFFFFF" d="M94.4,49.8h-1v-8.4h1V49.8z"/>
	<path fill="#FFFFFF" d="M101.8,46.9h-4.4c0,0.4,0.1,0.7,0.2,1c0.1,0.3,0.3,0.5,0.5,0.7c0.2,0.2,0.4,0.3,0.7,0.4
		c0.3,0.1,0.5,0.1,0.8,0.1c0.4,0,0.8-0.1,1.2-0.2c0.4-0.2,0.7-0.3,0.9-0.5h0.1v1.1c-0.3,0.1-0.7,0.3-1,0.4c-0.4,0.1-0.7,0.1-1.1,0.1
		c-1,0-1.8-0.3-2.3-0.8c-0.6-0.5-0.8-1.3-0.8-2.3c0-1,0.3-1.8,0.8-2.3c0.5-0.6,1.2-0.9,2.1-0.9c0.8,0,1.4,0.2,1.9,0.7
		c0.4,0.5,0.7,1.1,0.7,2V46.9z M100.8,46.2c0-0.5-0.1-1-0.4-1.2c-0.3-0.3-0.7-0.4-1.2-0.4c-0.5,0-1,0.2-1.3,0.5
		c-0.3,0.3-0.5,0.7-0.5,1.2H100.8z"/>
	<path fill="#FFFFFF" d="M108.2,49.5c-0.3,0.2-0.7,0.3-1,0.4c-0.3,0.1-0.6,0.1-1,0.1c-0.4,0-0.8-0.1-1.2-0.2
		c-0.4-0.1-0.7-0.3-0.9-0.6c-0.3-0.3-0.5-0.6-0.6-1c-0.1-0.4-0.2-0.9-0.2-1.4c0-1,0.3-1.8,0.8-2.3c0.5-0.6,1.3-0.8,2.1-0.8
		c0.3,0,0.7,0,1,0.1c0.3,0.1,0.6,0.2,0.9,0.4v1.1h-0.1c-0.3-0.2-0.6-0.4-1-0.6c-0.3-0.1-0.6-0.2-1-0.2c-0.6,0-1,0.2-1.4,0.6
		c-0.3,0.4-0.5,1-0.5,1.7c0,0.7,0.2,1.3,0.5,1.7c0.3,0.4,0.8,0.6,1.4,0.6c0.2,0,0.4,0,0.6-0.1c0.2-0.1,0.4-0.1,0.6-0.2
		c0.1-0.1,0.3-0.2,0.4-0.2c0.1-0.1,0.2-0.2,0.3-0.2h0.1V49.5z"/>
	<path fill="#FFFFFF" d="M114.9,49.8h-1v-0.7c-0.3,0.3-0.7,0.5-1,0.6c-0.3,0.1-0.7,0.2-1,0.2c-0.6,0-1.1-0.2-1.5-0.6
		c-0.4-0.4-0.5-1-0.5-1.7v-3.9h1v3.4c0,0.3,0,0.6,0,0.8c0,0.2,0.1,0.4,0.2,0.6c0.1,0.2,0.2,0.3,0.4,0.3c0.2,0.1,0.4,0.1,0.7,0.1
		c0.3,0,0.5-0.1,0.9-0.2c0.3-0.1,0.6-0.3,0.9-0.5v-4.5h1V49.8z"/>
	<path fill="#FFFFFF" d="M118.4,49.8h-1v-8.4h1V49.8z"/>
	<path fill="#FFFFFF" d="M125.5,49.8h-1v-0.6c-0.1,0.1-0.2,0.1-0.4,0.3c-0.2,0.1-0.3,0.2-0.4,0.3c-0.2,0.1-0.4,0.2-0.6,0.2
		c-0.2,0.1-0.5,0.1-0.8,0.1c-0.5,0-1-0.2-1.4-0.5c-0.4-0.4-0.6-0.8-0.6-1.4c0-0.5,0.1-0.8,0.3-1.1c0.2-0.3,0.5-0.5,0.8-0.7
		c0.4-0.2,0.8-0.3,1.3-0.3c0.5-0.1,1.1-0.1,1.6-0.1v-0.2c0-0.2,0-0.4-0.1-0.6c-0.1-0.2-0.2-0.3-0.3-0.4c-0.1-0.1-0.3-0.1-0.5-0.2
		c-0.2,0-0.4,0-0.6,0c-0.3,0-0.6,0-0.9,0.1c-0.3,0.1-0.7,0.2-1,0.3h-0.1v-1c0.2-0.1,0.5-0.1,0.9-0.2c0.4-0.1,0.7-0.1,1.1-0.1
		c0.4,0,0.8,0,1.1,0.1c0.3,0.1,0.6,0.2,0.8,0.4c0.2,0.2,0.4,0.4,0.5,0.6c0.1,0.3,0.2,0.6,0.2,1V49.8z M124.5,48.4v-1.7
		c-0.3,0-0.7,0-1.1,0.1c-0.4,0-0.7,0.1-1,0.2c-0.3,0.1-0.5,0.2-0.7,0.4c-0.2,0.2-0.3,0.4-0.3,0.7c0,0.3,0.1,0.6,0.3,0.8
		c0.2,0.2,0.5,0.3,0.9,0.3c0.4,0,0.7-0.1,1-0.2C123.9,48.7,124.2,48.6,124.5,48.4z"/>
	<path fill="#FFFFFF" d="M131.6,44.9L131.6,44.9c-0.2,0-0.3-0.1-0.5-0.1c-0.1,0-0.3,0-0.5,0c-0.3,0-0.6,0.1-0.9,0.2
		c-0.3,0.1-0.6,0.3-0.8,0.5v4.3h-1v-6h1v0.9c0.4-0.3,0.8-0.6,1.1-0.7c0.3-0.1,0.6-0.2,0.9-0.2c0.2,0,0.3,0,0.4,0s0.2,0,0.4,0.1V44.9
		z"/>
	<path fill="#FFFFFF" d="M143.4,47.4c0,0.4-0.1,0.7-0.2,1.1c-0.2,0.3-0.4,0.6-0.6,0.8c-0.3,0.2-0.6,0.4-1,0.5
		c-0.4,0.1-0.8,0.2-1.4,0.2h-2.8v-8h2.4c0.6,0,1,0,1.3,0.1c0.3,0,0.6,0.1,0.8,0.3c0.3,0.2,0.5,0.4,0.6,0.6c0.1,0.2,0.2,0.5,0.2,0.9
		c0,0.4-0.1,0.7-0.3,1c-0.2,0.3-0.5,0.5-0.8,0.6v0c0.5,0.1,1,0.3,1.3,0.7S143.4,46.8,143.4,47.4z M141.6,43.8c0-0.2,0-0.4-0.1-0.5
		c-0.1-0.1-0.2-0.2-0.3-0.3c-0.2-0.1-0.4-0.2-0.6-0.2c-0.2,0-0.5,0-0.9,0h-1.3v2.3h1.4c0.3,0,0.6,0,0.8-0.1c0.2,0,0.4-0.1,0.5-0.2
		c0.2-0.1,0.3-0.2,0.4-0.4C141.6,44.2,141.6,44,141.6,43.8z M142.3,47.4c0-0.3,0-0.6-0.1-0.8c-0.1-0.2-0.3-0.4-0.5-0.5
		c-0.2-0.1-0.4-0.1-0.6-0.2c-0.2,0-0.5,0-0.9,0h-1.7v3h1.4c0.5,0,0.8,0,1.1-0.1c0.3,0,0.5-0.1,0.7-0.3c0.2-0.1,0.3-0.3,0.4-0.5
		C142.3,47.9,142.3,47.7,142.3,47.4z"/>
	<path fill="#FFFFFF" d="M146.4,42.8h-1.1v-1h1.1V42.8z M146.3,49.8h-1v-6h1V49.8z"/>
	<path fill="#FFFFFF" d="M153.9,46.8c0,1-0.3,1.8-0.8,2.3c-0.5,0.6-1.2,0.9-2,0.9c-0.8,0-1.5-0.3-2-0.9c-0.5-0.6-0.8-1.3-0.8-2.3
		s0.2-1.8,0.8-2.3c0.5-0.6,1.2-0.9,2-0.9c0.8,0,1.5,0.3,2,0.9C153.6,45.1,153.9,45.9,153.9,46.8z M152.8,46.8c0-0.8-0.2-1.4-0.5-1.7
		c-0.3-0.4-0.7-0.6-1.3-0.6c-0.5,0-1,0.2-1.3,0.6c-0.3,0.4-0.5,1-0.5,1.7c0,0.8,0.2,1.3,0.5,1.7c0.3,0.4,0.7,0.6,1.3,0.6
		c0.5,0,1-0.2,1.3-0.6C152.7,48.2,152.8,47.6,152.8,46.8z"/>
	<path fill="#FFFFFF" d="M156.9,49.8h-1v-8.4h1V49.8z"/>
	<path fill="#FFFFFF" d="M164.4,46.8c0,1-0.3,1.8-0.8,2.3c-0.5,0.6-1.2,0.9-2,0.9c-0.8,0-1.5-0.3-2-0.9c-0.5-0.6-0.8-1.3-0.8-2.3
		s0.2-1.8,0.8-2.3c0.5-0.6,1.2-0.9,2-0.9c0.8,0,1.5,0.3,2,0.9C164.2,45.1,164.4,45.9,164.4,46.8z M163.4,46.8c0-0.8-0.2-1.4-0.5-1.7
		c-0.3-0.4-0.7-0.6-1.3-0.6c-0.5,0-1,0.2-1.3,0.6c-0.3,0.4-0.5,1-0.5,1.7c0,0.8,0.2,1.3,0.5,1.7c0.3,0.4,0.7,0.6,1.3,0.6
		c0.5,0,1-0.2,1.3-0.6C163.2,48.2,163.4,47.6,163.4,46.8z"/>
	<path fill="#FFFFFF" d="M171.3,49.2c0,1-0.2,1.8-0.7,2.2c-0.5,0.5-1.2,0.7-2.1,0.7c-0.3,0-0.6,0-0.9-0.1c-0.3,0-0.6-0.1-0.9-0.2v-1
		h0.1c0.2,0.1,0.4,0.1,0.8,0.2c0.4,0.1,0.7,0.1,1.1,0.1c0.3,0,0.6,0,0.9-0.1c0.2-0.1,0.4-0.2,0.5-0.3c0.1-0.1,0.2-0.3,0.3-0.5
		c0.1-0.2,0.1-0.4,0.1-0.7V49c-0.3,0.2-0.6,0.4-0.9,0.5c-0.3,0.1-0.6,0.2-1.1,0.2c-0.7,0-1.3-0.3-1.7-0.8c-0.4-0.5-0.6-1.2-0.6-2.2
		c0-0.5,0.1-1,0.2-1.3c0.1-0.4,0.3-0.7,0.6-1c0.2-0.3,0.5-0.5,0.9-0.6s0.7-0.2,1-0.2c0.3,0,0.6,0,0.9,0.1c0.2,0.1,0.5,0.2,0.7,0.3
		l0.1-0.3h1V49.2z M170.3,48.2v-3.3c-0.3-0.1-0.5-0.2-0.8-0.3c-0.2-0.1-0.5-0.1-0.7-0.1c-0.6,0-1,0.2-1.3,0.6
		c-0.3,0.4-0.5,0.9-0.5,1.6c0,0.7,0.1,1.2,0.4,1.5c0.2,0.3,0.6,0.5,1.2,0.5c0.3,0,0.6-0.1,0.9-0.2C169.8,48.5,170,48.4,170.3,48.2z"
		/>
	<path fill="#FFFFFF" d="M178.9,43.8l-3.5,8.2h-1.1l1.1-2.5l-2.4-5.7h1.1l1.8,4.4l1.9-4.4H178.9z"/>
</g>
</svg>
