<?xml version="1.0" encoding="utf-8"?>
<!-- Generator: Adobe Illustrator 18.1.0, SVG Export Plug-In . SVG Version: 6.00 Build 0)  -->
<!DOCTYPE svg PUBLIC "-//W3C//DTD SVG 1.1//EN" "http://www.w3.org/Graphics/SVG/1.1/DTD/svg11.dtd">
<svg version="1.1" id="Small_background" xmlns="http://www.w3.org/2000/svg" xmlns:xlink="http://www.w3.org/1999/xlink" x="0px"
	 y="0px" viewBox="0 0 136.3 60.3" enable-background="new 0 0 136.3 60.3" xml:space="preserve">
<path fill="#5F504B" d="M129.4,0.9H8.4c-5.3,0-7.6,2.4-7.6,7.6v44.5c0,5.2,2.3,7.6,7.6,7.6h120.9c5.3,0,7.6-2.4,7.6-7.6V8.5
	C136.9,3.3,134.6,0.9,129.4,0.9z"/>
<path fill="#FFFFFF" d="M48.5,42.2c0,3.5,2.3,6.3,5.5,6.9c0.6,0.1,1.3,0.2,2,0.1c1.8-0.1,3.4-0.8,4.4-1.5l0,2.4
	c-1.1,0.6-2.7,1.3-5.2,1.3l0,0c-5.2,0-9.1-4-9.1-9.2c0-5.3,3.9-9.2,9.1-9.2l0,0c2.5,0,4.1,0.7,5.2,1.3l0,2.4c-1-0.7-2.6-1.4-4.4-1.6
	c-0.7,0-1.3,0-2,0.1C50.8,35.9,48.5,38.8,48.5,42.2z"/>
<path fill="#FFFFFF" d="M46.2,51.3H43l-5.7-7h-3.8v7h-2.3V33.3h5.2c1.1,0,2,0,2.7,0.2c0.9,0.2,1.5,0.4,2.1,0.8
	c0.6,0.4,1,0.8,1.4,1.5c0.4,0.6,0.6,1.7,0.6,2.6c0,1.2-0.3,2.2-0.9,3.1c-0.6,0.9-1.5,1.7-2.6,2L46.2,51.3L46.2,51.3 M40.9,38.5
	c0-0.5-0.1-1.1-0.3-1.5c-0.2-0.4-0.5-0.7-0.9-1c-0.4-0.2-0.8-0.4-1.3-0.4c-0.5-0.1-1.1-0.1-1.7-0.1h-3.1V42h2.8c0.8,0,1.5,0,2-0.2
	c0.5-0.1,1.1-0.4,1.5-0.7c0.4-0.3,0.6-0.7,0.8-1.1C40.8,39.6,40.9,39.1,40.9,38.5L40.9,38.5z"/>
<path fill="#FFFFFF" d="M26.6,33.3h-3.3L20.3,42c-0.7,2-1.2,3.9-1.7,5.6h-0.1c-0.5-1.7-1-3.6-1.7-5.6l-3.1-8.7h-3.3L9.3,51.3h2.4
	l0.5-7.7c0.2-2.7,0.3-5.7,0.3-7.9h0.1c0.5,2.1,1.2,4.4,2.1,7l2.9,8.5h2l2.9-8.5c0.9-2.6,1.5-4.8,2.1-7h0.1c0.1,2.2,0.2,5.2,0.3,7.9
	l0.5,7.7h2.4L26.6,33.3z"/>
<polygon fill="#FFFFFF" points="70,55.3 68.6,55.3 68.6,6.3 70,6.3 70,55.3 "/>
<g>
	<path fill="#FFFFFF" d="M83.7,18.4c-0.2,0.1-0.4,0.2-0.5,0.2c-0.2,0.1-0.4,0.2-0.6,0.2c-0.2,0.1-0.5,0.1-0.7,0.2
		c-0.3,0-0.5,0.1-0.8,0.1c-0.6,0-1.1-0.1-1.6-0.2c-0.5-0.2-0.9-0.4-1.2-0.8c-0.3-0.3-0.6-0.8-0.8-1.3C77.1,16.3,77,15.7,77,15
		c0-0.7,0.1-1.2,0.3-1.8c0.2-0.5,0.5-1,0.8-1.3c0.3-0.3,0.8-0.6,1.2-0.8c0.5-0.2,1-0.3,1.6-0.3c0.4,0,0.9,0.1,1.3,0.2
		c0.4,0.1,0.9,0.3,1.4,0.5v1.3h-0.1c-0.4-0.4-0.9-0.6-1.3-0.8c-0.4-0.2-0.9-0.2-1.4-0.2c-0.4,0-0.8,0.1-1.1,0.2
		c-0.3,0.1-0.6,0.3-0.9,0.6c-0.2,0.3-0.4,0.6-0.6,1c-0.1,0.4-0.2,0.9-0.2,1.4c0,0.6,0.1,1,0.2,1.4c0.2,0.4,0.3,0.7,0.6,1
		c0.2,0.3,0.5,0.5,0.9,0.6c0.3,0.1,0.7,0.2,1.1,0.2c0.5,0,1-0.1,1.4-0.3c0.4-0.2,0.9-0.4,1.3-0.8h0.1V18.4z"/>
	<path fill="#FFFFFF" d="M86.6,19h-1v-8.4h1V19z"/>
	<path fill="#FFFFFF" d="M90.1,12h-1.1v-1h1.1V12z M90,19h-1v-6h1V19z"/>
	<path fill="#FFFFFF" d="M97.5,19h-1v-3.4c0-0.3,0-0.5,0-0.8c0-0.2-0.1-0.4-0.2-0.6c-0.1-0.1-0.2-0.3-0.4-0.3
		c-0.2-0.1-0.4-0.1-0.7-0.1c-0.3,0-0.6,0.1-0.9,0.2c-0.3,0.1-0.6,0.3-0.9,0.5V19h-1v-6h1v0.7c0.3-0.3,0.6-0.5,1-0.6
		c0.3-0.1,0.7-0.2,1-0.2c0.6,0,1.1,0.2,1.5,0.6c0.3,0.4,0.5,1,0.5,1.7V19z"/>
	<path fill="#FFFFFF" d="M100.9,12h-1.1v-1h1.1V12z M100.9,19h-1v-6h1V19z"/>
	<path fill="#FFFFFF" d="M107.7,18.6c-0.3,0.2-0.7,0.3-1,0.4c-0.3,0.1-0.6,0.1-1,0.1c-0.4,0-0.8-0.1-1.2-0.2
		c-0.4-0.1-0.7-0.3-0.9-0.6c-0.3-0.3-0.5-0.6-0.6-1c-0.1-0.4-0.2-0.9-0.2-1.4c0-1,0.3-1.8,0.8-2.3c0.5-0.6,1.3-0.8,2.1-0.8
		c0.3,0,0.7,0,1,0.1c0.3,0.1,0.6,0.2,0.9,0.4v1.1h-0.1c-0.3-0.2-0.6-0.4-1-0.6c-0.3-0.1-0.6-0.2-1-0.2c-0.6,0-1,0.2-1.4,0.6
		c-0.3,0.4-0.5,1-0.5,1.7c0,0.7,0.2,1.3,0.5,1.7c0.3,0.4,0.8,0.6,1.4,0.6c0.2,0,0.4,0,0.6-0.1c0.2-0.1,0.4-0.1,0.6-0.2
		c0.1-0.1,0.3-0.2,0.4-0.2c0.1-0.1,0.2-0.2,0.3-0.2h0.1V18.6z"/>
	<path fill="#FFFFFF" d="M114.1,19h-1v-0.6c-0.1,0.1-0.2,0.1-0.4,0.3c-0.2,0.1-0.3,0.2-0.4,0.3c-0.2,0.1-0.4,0.2-0.6,0.2
		c-0.2,0.1-0.5,0.1-0.8,0.1c-0.5,0-1-0.2-1.4-0.5c-0.4-0.4-0.6-0.8-0.6-1.4c0-0.5,0.1-0.8,0.3-1.1c0.2-0.3,0.5-0.5,0.8-0.7
		c0.4-0.2,0.8-0.3,1.3-0.3c0.5-0.1,1.1-0.1,1.6-0.1v-0.2c0-0.2,0-0.4-0.1-0.6c-0.1-0.2-0.2-0.3-0.3-0.4c-0.1-0.1-0.3-0.1-0.5-0.2
		c-0.2,0-0.4,0-0.6,0c-0.3,0-0.6,0-0.9,0.1c-0.3,0.1-0.7,0.2-1,0.3h-0.1v-1c0.2-0.1,0.5-0.1,0.9-0.2c0.4-0.1,0.7-0.1,1.1-0.1
		c0.4,0,0.8,0,1.1,0.1c0.3,0.1,0.6,0.2,0.8,0.4c0.2,0.2,0.4,0.4,0.5,0.6c0.1,0.3,0.2,0.6,0.2,1V19z M113.1,17.5v-1.7
		c-0.3,0-0.7,0-1.1,0.1c-0.4,0-0.7,0.1-1,0.2c-0.3,0.1-0.5,0.2-0.7,0.4c-0.2,0.2-0.3,0.4-0.3,0.7c0,0.3,0.1,0.6,0.3,0.8
		c0.2,0.2,0.5,0.3,0.9,0.3c0.4,0,0.7-0.1,1-0.2C112.6,17.9,112.9,17.7,113.1,17.5z"/>
	<path fill="#FFFFFF" d="M117.5,19h-1v-8.4h1V19z"/>
	<path fill="#FFFFFF" d="M83.3,32.7c0,0.3-0.1,0.6-0.2,0.9c-0.1,0.3-0.3,0.6-0.6,0.8c-0.3,0.2-0.6,0.4-1,0.5
		c-0.4,0.1-0.8,0.2-1.4,0.2c-0.6,0-1.1-0.1-1.6-0.2c-0.5-0.1-0.9-0.3-1.4-0.5v-1.3h0.1c0.4,0.3,0.9,0.6,1.4,0.8
		c0.5,0.2,1,0.3,1.5,0.3c0.7,0,1.2-0.1,1.5-0.4c0.4-0.2,0.5-0.6,0.5-1c0-0.4-0.1-0.6-0.3-0.8c-0.2-0.2-0.4-0.3-0.8-0.4
		c-0.3-0.1-0.6-0.1-0.9-0.2c-0.3,0-0.6-0.1-1-0.2c-0.7-0.1-1.2-0.4-1.6-0.8c-0.3-0.4-0.5-0.8-0.5-1.4c0-0.7,0.3-1.2,0.8-1.6
		c0.6-0.4,1.3-0.6,2.1-0.6c0.6,0,1.1,0.1,1.5,0.2c0.5,0.1,0.9,0.2,1.2,0.4v1.3h-0.1c-0.3-0.3-0.7-0.5-1.2-0.6
		c-0.5-0.2-1-0.3-1.5-0.3c-0.6,0-1,0.1-1.4,0.4c-0.3,0.2-0.5,0.5-0.5,0.9c0,0.3,0.1,0.6,0.3,0.8c0.2,0.2,0.5,0.3,0.9,0.4
		c0.2,0.1,0.6,0.1,1,0.2c0.4,0.1,0.8,0.1,1.1,0.2c0.6,0.2,1,0.4,1.3,0.7C83.1,31.7,83.3,32.2,83.3,32.7z"/>
	<path fill="#FFFFFF" d="M89.8,34.6c-0.3,0.2-0.7,0.3-1,0.4c-0.3,0.1-0.6,0.1-1,0.1c-0.4,0-0.8-0.1-1.2-0.2
		c-0.4-0.1-0.7-0.3-0.9-0.6c-0.3-0.3-0.5-0.6-0.6-1C85,33,84.9,32.6,84.9,32c0-1,0.3-1.8,0.8-2.3c0.5-0.6,1.3-0.8,2.1-0.8
		c0.3,0,0.7,0,1,0.1c0.3,0.1,0.6,0.2,0.9,0.4v1.1h-0.1c-0.3-0.2-0.6-0.4-1-0.6c-0.3-0.1-0.6-0.2-1-0.2c-0.6,0-1,0.2-1.4,0.6
		c-0.3,0.4-0.5,1-0.5,1.7c0,0.7,0.2,1.3,0.5,1.7c0.3,0.4,0.8,0.6,1.4,0.6c0.2,0,0.4,0,0.6-0.1c0.2-0.1,0.4-0.1,0.6-0.2
		c0.1-0.1,0.3-0.2,0.4-0.2c0.1-0.1,0.2-0.2,0.3-0.2h0.1V34.6z"/>
	<path fill="#FFFFFF" d="M92.6,28h-1.1v-1h1.1V28z M92.6,35h-1v-6h1V35z"/>
	<path fill="#FFFFFF" d="M100,32.1h-4.4c0,0.4,0.1,0.7,0.2,1c0.1,0.3,0.3,0.5,0.5,0.7c0.2,0.2,0.4,0.3,0.7,0.4
		c0.3,0.1,0.5,0.1,0.8,0.1c0.4,0,0.8-0.1,1.2-0.2c0.4-0.2,0.7-0.3,0.9-0.5h0.1v1.1c-0.3,0.1-0.7,0.3-1,0.4c-0.4,0.1-0.7,0.1-1.1,0.1
		c-1,0-1.8-0.3-2.3-0.8c-0.6-0.5-0.8-1.3-0.8-2.3c0-1,0.3-1.8,0.8-2.3c0.5-0.6,1.2-0.9,2.1-0.9c0.8,0,1.4,0.2,1.9,0.7
		c0.4,0.5,0.7,1.1,0.7,2V32.1z M99,31.3c0-0.5-0.1-1-0.4-1.2c-0.3-0.3-0.7-0.4-1.2-0.4c-0.5,0-1,0.2-1.3,0.5
		c-0.3,0.3-0.5,0.7-0.5,1.2H99z"/>
	<path fill="#FFFFFF" d="M107,35h-1v-3.4c0-0.3,0-0.5,0-0.8c0-0.2-0.1-0.4-0.2-0.6c-0.1-0.1-0.2-0.3-0.4-0.3
		c-0.2-0.1-0.4-0.1-0.7-0.1c-0.3,0-0.6,0.1-0.9,0.2c-0.3,0.1-0.6,0.3-0.9,0.5V35h-1v-6h1v0.7c0.3-0.3,0.6-0.5,1-0.6
		c0.3-0.1,0.7-0.2,1-0.2c0.6,0,1.1,0.2,1.5,0.6c0.3,0.4,0.5,1,0.5,1.7V35z"/>
	<path fill="#FFFFFF" d="M113.8,34.6c-0.3,0.2-0.7,0.3-1,0.4c-0.3,0.1-0.6,0.1-1,0.1c-0.4,0-0.8-0.1-1.2-0.2
		c-0.4-0.1-0.7-0.3-0.9-0.6c-0.3-0.3-0.5-0.6-0.6-1C109,33,109,32.6,109,32c0-1,0.3-1.8,0.8-2.3c0.5-0.6,1.3-0.8,2.1-0.8
		c0.3,0,0.7,0,1,0.1c0.3,0.1,0.6,0.2,0.9,0.4v1.1h-0.1c-0.3-0.2-0.6-0.4-1-0.6c-0.3-0.1-0.6-0.2-1-0.2c-0.6,0-1,0.2-1.4,0.6
		c-0.3,0.4-0.5,1-0.5,1.7c0,0.7,0.2,1.3,0.5,1.7c0.3,0.4,0.8,0.6,1.4,0.6c0.2,0,0.4,0,0.6-0.1c0.2-0.1,0.4-0.1,0.6-0.2
		c0.1-0.1,0.3-0.2,0.4-0.2c0.1-0.1,0.2-0.2,0.3-0.2h0.1V34.6z"/>
	<path fill="#FFFFFF" d="M120.6,32.1h-4.4c0,0.4,0.1,0.7,0.2,1c0.1,0.3,0.3,0.5,0.5,0.7c0.2,0.2,0.4,0.3,0.7,0.4
		c0.3,0.1,0.5,0.1,0.8,0.1c0.4,0,0.8-0.1,1.2-0.2c0.4-0.2,0.7-0.3,0.9-0.5h0.1v1.1c-0.3,0.1-0.7,0.3-1,0.4c-0.4,0.1-0.7,0.1-1.1,0.1
		c-1,0-1.8-0.3-2.3-0.8c-0.6-0.5-0.8-1.3-0.8-2.3c0-1,0.3-1.8,0.8-2.3c0.5-0.6,1.2-0.9,2.1-0.9c0.8,0,1.4,0.2,1.9,0.7
		c0.4,0.5,0.7,1.1,0.7,2V32.1z M119.6,31.3c0-0.5-0.1-1-0.4-1.2c-0.3-0.3-0.7-0.4-1.2-0.4c-0.5,0-1,0.2-1.3,0.5
		c-0.3,0.3-0.5,0.7-0.5,1.2H119.6z"/>
	<path fill="#FFFFFF" d="M126.8,33.3c0,0.5-0.2,1-0.7,1.3c-0.5,0.4-1.1,0.5-1.9,0.5c-0.4,0-0.9-0.1-1.2-0.2
		c-0.4-0.1-0.7-0.2-0.9-0.3v-1.1h0.1c0.3,0.2,0.7,0.4,1.1,0.6c0.4,0.1,0.8,0.2,1.1,0.2c0.4,0,0.8-0.1,1-0.2c0.2-0.1,0.4-0.4,0.4-0.7
		c0-0.2-0.1-0.4-0.2-0.5c-0.1-0.1-0.4-0.2-0.8-0.3c-0.1,0-0.3-0.1-0.6-0.1c-0.2,0-0.4-0.1-0.6-0.1c-0.5-0.1-0.9-0.3-1.1-0.6
		c-0.2-0.3-0.3-0.6-0.3-1c0-0.2,0.1-0.5,0.2-0.7c0.1-0.2,0.3-0.4,0.5-0.6c0.2-0.2,0.5-0.3,0.8-0.4c0.3-0.1,0.7-0.1,1-0.1
		c0.4,0,0.7,0,1.1,0.1c0.4,0.1,0.7,0.2,0.9,0.3v1.1h-0.1c-0.3-0.2-0.6-0.4-0.9-0.5c-0.4-0.1-0.7-0.2-1.1-0.2c-0.4,0-0.7,0.1-0.9,0.2
		c-0.3,0.1-0.4,0.4-0.4,0.6c0,0.2,0.1,0.4,0.2,0.6c0.1,0.1,0.4,0.2,0.7,0.3c0.2,0,0.4,0.1,0.6,0.1c0.2,0,0.4,0.1,0.6,0.1
		c0.5,0.1,0.8,0.3,1.1,0.6C126.7,32.5,126.8,32.8,126.8,33.3z"/>
	<path fill="#FFFFFF" d="M83.7,50.4c-0.2,0.1-0.4,0.2-0.5,0.2c-0.2,0.1-0.4,0.2-0.6,0.2c-0.2,0.1-0.5,0.1-0.7,0.2
		c-0.3,0-0.5,0.1-0.8,0.1c-0.6,0-1.1-0.1-1.6-0.2c-0.5-0.2-0.9-0.4-1.2-0.8c-0.3-0.3-0.6-0.8-0.8-1.3C77.1,48.3,77,47.7,77,47
		c0-0.7,0.1-1.2,0.3-1.8c0.2-0.5,0.5-1,0.8-1.3c0.3-0.3,0.8-0.6,1.2-0.8c0.5-0.2,1-0.3,1.6-0.3c0.4,0,0.9,0.1,1.3,0.2
		c0.4,0.1,0.9,0.3,1.4,0.5v1.3h-0.1c-0.4-0.4-0.9-0.6-1.3-0.8c-0.4-0.2-0.9-0.2-1.4-0.2c-0.4,0-0.8,0.1-1.1,0.2
		c-0.3,0.1-0.6,0.3-0.9,0.6c-0.2,0.3-0.4,0.6-0.6,1c-0.1,0.4-0.2,0.9-0.2,1.4c0,0.6,0.1,1,0.2,1.4c0.2,0.4,0.3,0.7,0.6,1
		c0.2,0.3,0.5,0.5,0.9,0.6c0.3,0.1,0.7,0.2,1.1,0.2c0.5,0,1-0.1,1.4-0.3c0.4-0.2,0.9-0.4,1.3-0.8h0.1V50.4z"/>
	<path fill="#FFFFFF" d="M90.6,48.1h-4.4c0,0.4,0.1,0.7,0.2,1c0.1,0.3,0.3,0.5,0.5,0.7c0.2,0.2,0.4,0.3,0.7,0.4
		c0.3,0.1,0.5,0.1,0.8,0.1c0.4,0,0.8-0.1,1.2-0.2c0.4-0.2,0.7-0.3,0.9-0.5h0.1v1.1c-0.3,0.1-0.7,0.3-1,0.4c-0.4,0.1-0.7,0.1-1.1,0.1
		c-1,0-1.8-0.3-2.3-0.8c-0.6-0.5-0.8-1.3-0.8-2.3c0-1,0.3-1.8,0.8-2.3c0.5-0.6,1.2-0.9,2.1-0.9c0.8,0,1.4,0.2,1.9,0.7
		c0.4,0.5,0.7,1.1,0.7,2V48.1z M89.6,47.3c0-0.5-0.1-1-0.4-1.2c-0.3-0.3-0.7-0.4-1.2-0.4c-0.5,0-1,0.2-1.3,0.5
		c-0.3,0.3-0.5,0.7-0.5,1.2H89.6z"/>
	<path fill="#FFFFFF" d="M97.5,51h-1v-3.4c0-0.3,0-0.5,0-0.8c0-0.2-0.1-0.4-0.2-0.6c-0.1-0.1-0.2-0.3-0.4-0.3
		c-0.2-0.1-0.4-0.1-0.7-0.1c-0.3,0-0.6,0.1-0.9,0.2c-0.3,0.1-0.6,0.3-0.9,0.5V51h-1v-6h1v0.7c0.3-0.3,0.6-0.5,1-0.6
		c0.3-0.1,0.7-0.2,1-0.2c0.6,0,1.1,0.2,1.5,0.6c0.3,0.4,0.5,1,0.5,1.7V51z"/>
	<path fill="#FFFFFF" d="M103,51c-0.2,0-0.4,0.1-0.6,0.1c-0.2,0-0.4,0-0.6,0c-0.6,0-1.1-0.2-1.4-0.5c-0.3-0.3-0.5-0.9-0.5-1.6v-3.2
		h-0.7V45h0.7v-1.7h1V45h2.1v0.8H101v2.8c0,0.3,0,0.6,0,0.7c0,0.2,0.1,0.3,0.1,0.5c0.1,0.1,0.2,0.2,0.3,0.3c0.1,0.1,0.3,0.1,0.6,0.1
		c0.2,0,0.3,0,0.5-0.1c0.2,0,0.3-0.1,0.4-0.1h0.1V51z"/>
	<path fill="#FFFFFF" d="M108.4,46.1L108.4,46.1c-0.2,0-0.3-0.1-0.5-0.1c-0.1,0-0.3,0-0.5,0c-0.3,0-0.6,0.1-0.9,0.2
		c-0.3,0.1-0.6,0.3-0.8,0.5V51h-1v-6h1v0.9c0.4-0.3,0.8-0.6,1.1-0.7c0.3-0.1,0.6-0.2,0.9-0.2c0.2,0,0.3,0,0.4,0c0.1,0,0.2,0,0.4,0.1
		V46.1z"/>
	<path fill="#FFFFFF" d="M114.9,48.1h-4.4c0,0.4,0.1,0.7,0.2,1c0.1,0.3,0.3,0.5,0.5,0.7c0.2,0.2,0.4,0.3,0.7,0.4
		c0.3,0.1,0.5,0.1,0.8,0.1c0.4,0,0.8-0.1,1.2-0.2c0.4-0.2,0.7-0.3,0.9-0.5h0.1v1.1c-0.3,0.1-0.7,0.3-1,0.4c-0.4,0.1-0.7,0.1-1.1,0.1
		c-1,0-1.8-0.3-2.3-0.8c-0.6-0.5-0.8-1.3-0.8-2.3c0-1,0.3-1.8,0.8-2.3c0.5-0.6,1.2-0.9,2.1-0.9c0.8,0,1.4,0.2,1.9,0.7
		c0.4,0.5,0.7,1.1,0.7,2V48.1z M113.9,47.3c0-0.5-0.1-1-0.4-1.2c-0.3-0.3-0.7-0.4-1.2-0.4c-0.5,0-1,0.2-1.3,0.5
		c-0.3,0.3-0.5,0.7-0.5,1.2H113.9z"/>
</g>
</svg>
